<svg width="25" height="25" viewBox="0 0 25 25" fill="none" xmlns="http://www.w3.org/2000/svg">
<g clip-path="url(#clip0_1_1400)">
<path d="M22.788 14.1011C23.0337 14.1011 23.2444 14.3027 23.2444 14.5636V16.6272C23.2444 16.8762 23.0454 17.0897 22.788 17.0897H16.0581C15.8123 17.0897 15.6016 16.8881 15.6016 16.6272V14.5636C15.6016 14.3146 15.8006 14.1011 16.0581 14.1011H22.788ZM22.788 12.3221H16.0581C14.8409 12.3221 13.846 13.3302 13.846 14.5636V16.6272C13.846 17.8606 14.8409 18.8686 16.0581 18.8686H22.788C24.0052 18.8686 25 17.8606 25 16.6272V14.5636C25 13.3302 24.0052 12.3221 22.788 12.3221Z" fill="#FAF2DA"/>
<path d="M16.8188 1.77894C17.0646 1.77894 17.2753 1.98055 17.2753 2.24146V9.06072C17.2753 9.30977 17.0763 9.52324 16.8188 9.52324H14.7823C14.5365 9.52324 14.3259 9.32163 14.3259 9.06072V2.24146C14.3259 1.99241 14.5248 1.77894 14.7823 1.77894H16.8188ZM16.8188 0H14.7823C13.5651 0 12.5703 1.00806 12.5703 2.24146V9.06072C12.5703 10.2941 13.5651 11.3022 14.7823 11.3022H16.8188C18.0361 11.3022 19.0309 10.2941 19.0309 9.06072V2.24146C19.0309 1.00806 18.0478 0 16.8188 0Z" fill="#FAF2DA"/>
<path d="M10.5454 15.4768C10.7912 15.4768 11.0019 15.6784 11.0019 15.9393V22.7586C11.0019 23.0076 10.8029 23.2211 10.5454 23.2211H8.50889C8.26311 23.2211 8.05243 23.0195 8.05243 22.7586V15.9393C8.05243 15.6903 8.2514 15.4768 8.50889 15.4768H10.5454ZM10.5454 13.6979H8.50889C7.29166 13.6979 6.29681 14.7059 6.29681 15.9393V22.7586C6.29681 23.992 7.29166 25.0001 8.50889 25.0001H10.5454C11.7626 25.0001 12.7575 23.992 12.7575 22.7586V15.9393C12.7575 14.7059 11.7626 13.6979 10.5454 13.6979Z" fill="#FAF2DA"/>
<path d="M8.94195 8.0171C9.18773 8.0171 9.39841 8.21871 9.39841 8.47962V10.555C9.39841 10.8041 9.19944 11.0176 8.94195 11.0176H2.21208C1.95459 11.0176 1.75562 10.8041 1.75562 10.555V8.47962C1.75562 8.23057 1.95459 8.0171 2.21208 8.0171H8.94195ZM8.94195 6.23816H2.21208C0.99485 6.23816 0 7.24622 0 8.47962V10.555C0 11.7884 0.99485 12.7965 2.21208 12.7965H8.94195C10.1592 12.7965 11.154 11.7884 11.154 10.555V8.47962C11.154 7.24622 10.1592 6.23816 8.94195 6.23816Z" fill="#FAF2DA"/>
</g>
<defs>
<clipPath id="clip0_1_1400">
<rect width="25" height="25" fill="white"/>
</clipPath>
</defs>
</svg>
