<svg width="29" height="27" viewBox="0 0 29 27" fill="none" xmlns="http://www.w3.org/2000/svg">
<mask id="path-1-outside-1_1_1438" maskUnits="userSpaceOnUse" x="-0.13623" y="-0.00012207" width="29" height="27" fill="black">
<rect fill="white" x="-0.13623" y="-0.00012207" width="29" height="27"/>
<path d="M25.5064 11.8041C24.6129 8.32638 22.1078 5.43544 18.7275 4.0845C18.1436 2.26107 16.4268 0.999878 14.5001 0.999878C12.5241 0.999878 10.8463 2.29809 10.2729 4.08615C8.2371 4.90155 6.49373 6.27711 5.21826 8.07917C4.4125 9.21769 3.83157 10.4763 3.49141 11.8042C2.02429 11.9138 0.86377 13.1416 0.86377 14.6362C0.86377 16.1317 2.02546 17.3602 3.49376 17.4685C4.75548 22.3686 9.21161 25.9999 14.5001 25.9999C19.7884 25.9999 24.2446 22.3686 25.5062 17.4685C26.9745 17.3602 28.1363 16.1317 28.1363 14.6361C28.1363 13.1408 26.9746 11.9125 25.5064 11.8041ZM2.00021 14.6361C2.00021 13.8521 2.53251 13.1901 3.25459 12.9921C3.2058 13.3303 3.17181 13.6717 3.15338 14.0157C3.15306 14.0205 3.1529 14.0252 3.15264 14.03C3.14933 14.0927 3.1464 14.1554 3.14417 14.2182C3.14326 14.242 3.14278 14.2658 3.14214 14.2896C3.14076 14.3346 3.13932 14.3797 3.13847 14.4248C3.13724 14.4952 3.1365 14.5657 3.1365 14.6362C3.1365 14.7222 3.13783 14.8082 3.13985 14.8943C3.14044 14.9212 3.14118 14.9481 3.14204 14.9749C3.14385 15.0375 3.1463 15.1001 3.14917 15.1626C3.15035 15.1891 3.15141 15.2157 3.15274 15.2423C3.1569 15.3204 3.1619 15.3984 3.1676 15.4764C3.17032 15.513 3.17352 15.5494 3.1765 15.586C3.18039 15.6322 3.18444 15.6785 3.18886 15.7247C3.19275 15.7654 3.19674 15.8061 3.20106 15.8467C3.20606 15.8942 3.21176 15.9416 3.21736 15.9891C3.22476 16.0512 3.2327 16.1131 3.24106 16.1748C3.24585 16.2102 3.25027 16.2455 3.25539 16.2807C2.53288 16.083 2.00021 15.4206 2.00021 14.6361ZM14.5001 2.13632C15.6254 2.13632 16.6547 2.71426 17.2555 3.61889C17.2442 3.61878 17.2328 3.61873 17.2215 3.61873C17.2141 3.61873 17.207 3.61926 17.1996 3.61932C17.1968 3.61942 17.1939 3.61937 17.1911 3.61953C15.4219 3.63599 13.9878 5.07962 13.9878 6.8525C13.9878 7.54241 14.2045 8.19833 14.5939 8.73952C14.5627 8.74037 14.5313 8.74085 14.5001 8.74085C12.6793 8.74085 11.1979 7.25951 11.1979 5.43869C11.1979 3.61772 12.6792 2.13632 14.5001 2.13632ZM24.7235 14.9054C24.7232 14.9192 24.7224 14.933 24.722 14.9468C24.7197 15.023 24.7169 15.0991 24.7129 15.1752C24.7122 15.1888 24.7111 15.2024 24.7103 15.216C24.706 15.292 24.7012 15.3681 24.6953 15.444C24.6941 15.4594 24.6924 15.4746 24.6912 15.4899C24.6851 15.5633 24.6784 15.6367 24.6708 15.7099C24.6687 15.7303 24.6661 15.7506 24.6638 15.771C24.6564 15.8381 24.6486 15.9051 24.6399 15.9721C24.6362 16.0001 24.632 16.0279 24.6281 16.0559C24.6201 16.1138 24.6119 16.1716 24.6028 16.2293C24.5969 16.2668 24.5905 16.3041 24.5841 16.3416C24.5763 16.3883 24.5685 16.4349 24.56 16.4815C24.5513 16.5289 24.5421 16.5759 24.5328 16.623C24.5259 16.6582 24.5189 16.6936 24.5116 16.7288C23.5433 21.3678 19.4222 24.8634 14.5 24.8634C9.57409 24.8634 5.45061 21.3629 4.48617 16.7188C4.47743 16.6767 4.46939 16.6343 4.46124 16.592C4.45335 16.5517 4.44531 16.5113 4.43796 16.4707C4.42752 16.4133 4.41798 16.3556 4.4085 16.298C4.40419 16.2715 4.39945 16.2451 4.39535 16.2186C4.38405 16.1456 4.37372 16.0725 4.36392 15.9993C4.36227 15.9869 4.36024 15.9745 4.3587 15.9621C4.34751 15.8759 4.33729 15.7894 4.32828 15.7029C4.32828 15.7025 4.32818 15.702 4.32818 15.7016C4.29137 15.3479 4.27278 14.9921 4.27278 14.6363C4.27278 14.5561 4.27411 14.4757 4.27603 14.3955C4.27672 14.3691 4.27752 14.3428 4.27837 14.3165C4.28002 14.2625 4.28226 14.2085 4.28482 14.1544C4.28626 14.123 4.28764 14.0915 4.2894 14.0602C4.29212 14.0123 4.29553 13.9645 4.29888 13.9167C4.30479 13.8342 4.31145 13.7517 4.31928 13.6696C4.32019 13.6601 4.32093 13.6507 4.32184 13.6413C4.67105 10.105 6.86122 6.9667 10.0619 5.4208C10.0619 5.42681 10.0615 5.43273 10.0615 5.43875C10.0615 5.84549 10.1175 6.23913 10.2205 6.61359C9.20064 7.15665 8.30506 7.88022 7.55438 8.76983C7.35196 9.00969 7.38238 9.36817 7.62224 9.57048C7.72888 9.6605 7.85896 9.70439 7.98839 9.70439C8.15 9.70439 8.31055 9.63578 8.42289 9.50262C9.05703 8.75113 9.80921 8.13526 10.6633 7.66609C11.4331 8.98694 12.8642 9.87729 14.5001 9.87729C15.0017 9.87729 15.4947 9.79388 15.9649 9.62945C16.1697 9.5578 16.3159 9.37579 16.3416 9.16027C16.3672 8.94481 16.2679 8.7335 16.0856 8.61583C15.4836 8.22693 15.1242 7.56781 15.1242 6.8526C15.1242 5.71957 16.0274 4.79417 17.1516 4.75704C20.9258 5.76682 23.7327 8.81851 24.5103 12.5379C24.5232 12.5994 24.5357 12.6611 24.5473 12.7229C24.5534 12.7551 24.559 12.7876 24.5649 12.82C24.574 12.8706 24.5829 12.9212 24.5912 12.9719C24.5962 13.0023 24.6009 13.0327 24.6057 13.0632C24.6145 13.1202 24.6229 13.1773 24.6306 13.2345C24.6339 13.2583 24.6374 13.2822 24.6405 13.306C24.6621 13.4721 24.6798 13.6388 24.6933 13.8059C24.6949 13.825 24.6961 13.8443 24.6975 13.8635C24.7024 13.9277 24.7067 13.9921 24.7103 14.0564C24.7117 14.0814 24.713 14.1065 24.7143 14.1315C24.7174 14.1928 24.7197 14.2541 24.7216 14.3154C24.7224 14.3391 24.7232 14.3628 24.7239 14.3864C24.7259 14.4697 24.7272 14.553 24.7272 14.6362C24.7271 14.726 24.7259 14.8158 24.7235 14.9054ZM25.7447 16.2807C25.7509 16.2378 25.7565 16.1946 25.7623 16.1515C25.7684 16.106 25.7742 16.0604 25.7798 16.0147C25.7868 15.9574 25.7935 15.9 25.7996 15.8426C25.8036 15.805 25.8073 15.7673 25.8108 15.7295C25.8156 15.68 25.8199 15.6305 25.824 15.581C25.8269 15.5467 25.8299 15.5125 25.8324 15.4781C25.8383 15.3992 25.8433 15.3203 25.8475 15.2413C25.8489 15.2158 25.8498 15.1903 25.851 15.1648C25.8539 15.1013 25.8563 15.0378 25.8582 14.9742C25.859 14.9477 25.8597 14.9212 25.8604 14.8946C25.8623 14.8085 25.8637 14.7224 25.8637 14.6361C25.8637 14.5612 25.8628 14.4862 25.8613 14.4113C25.8607 14.3841 25.8598 14.3569 25.8591 14.3297C25.8579 14.2827 25.8564 14.2356 25.8547 14.1885C25.8533 14.1551 25.8516 14.1216 25.8501 14.0882C25.8482 14.0478 25.8461 14.0074 25.8437 13.967C25.8416 13.9307 25.8393 13.8945 25.8368 13.8582C25.8343 13.8209 25.8315 13.7838 25.8286 13.7465C25.8256 13.7088 25.8227 13.6709 25.8193 13.6333C25.8161 13.5969 25.8125 13.5606 25.809 13.5242C25.8053 13.4867 25.8018 13.4492 25.7978 13.4118C25.7933 13.3695 25.7881 13.3274 25.7831 13.2852C25.7775 13.2383 25.7718 13.1914 25.7656 13.1447C25.7588 13.0936 25.7522 13.0426 25.7448 12.9917C26.4674 13.1894 26.9999 13.8517 26.9999 14.636C26.9998 15.4207 26.4673 16.083 25.7447 16.2807Z"/>
</mask>
<path d="M25.5064 11.8041C24.6129 8.32638 22.1078 5.43544 18.7275 4.0845C18.1436 2.26107 16.4268 0.999878 14.5001 0.999878C12.5241 0.999878 10.8463 2.29809 10.2729 4.08615C8.2371 4.90155 6.49373 6.27711 5.21826 8.07917C4.4125 9.21769 3.83157 10.4763 3.49141 11.8042C2.02429 11.9138 0.86377 13.1416 0.86377 14.6362C0.86377 16.1317 2.02546 17.3602 3.49376 17.4685C4.75548 22.3686 9.21161 25.9999 14.5001 25.9999C19.7884 25.9999 24.2446 22.3686 25.5062 17.4685C26.9745 17.3602 28.1363 16.1317 28.1363 14.6361C28.1363 13.1408 26.9746 11.9125 25.5064 11.8041ZM2.00021 14.6361C2.00021 13.8521 2.53251 13.1901 3.25459 12.9921C3.2058 13.3303 3.17181 13.6717 3.15338 14.0157C3.15306 14.0205 3.1529 14.0252 3.15264 14.03C3.14933 14.0927 3.1464 14.1554 3.14417 14.2182C3.14326 14.242 3.14278 14.2658 3.14214 14.2896C3.14076 14.3346 3.13932 14.3797 3.13847 14.4248C3.13724 14.4952 3.1365 14.5657 3.1365 14.6362C3.1365 14.7222 3.13783 14.8082 3.13985 14.8943C3.14044 14.9212 3.14118 14.9481 3.14204 14.9749C3.14385 15.0375 3.1463 15.1001 3.14917 15.1626C3.15035 15.1891 3.15141 15.2157 3.15274 15.2423C3.1569 15.3204 3.1619 15.3984 3.1676 15.4764C3.17032 15.513 3.17352 15.5494 3.1765 15.586C3.18039 15.6322 3.18444 15.6785 3.18886 15.7247C3.19275 15.7654 3.19674 15.8061 3.20106 15.8467C3.20606 15.8942 3.21176 15.9416 3.21736 15.9891C3.22476 16.0512 3.2327 16.1131 3.24106 16.1748C3.24585 16.2102 3.25027 16.2455 3.25539 16.2807C2.53288 16.083 2.00021 15.4206 2.00021 14.6361ZM14.5001 2.13632C15.6254 2.13632 16.6547 2.71426 17.2555 3.61889C17.2442 3.61878 17.2328 3.61873 17.2215 3.61873C17.2141 3.61873 17.207 3.61926 17.1996 3.61932C17.1968 3.61942 17.1939 3.61937 17.1911 3.61953C15.4219 3.63599 13.9878 5.07962 13.9878 6.8525C13.9878 7.54241 14.2045 8.19833 14.5939 8.73952C14.5627 8.74037 14.5313 8.74085 14.5001 8.74085C12.6793 8.74085 11.1979 7.25951 11.1979 5.43869C11.1979 3.61772 12.6792 2.13632 14.5001 2.13632ZM24.7235 14.9054C24.7232 14.9192 24.7224 14.933 24.722 14.9468C24.7197 15.023 24.7169 15.0991 24.7129 15.1752C24.7122 15.1888 24.7111 15.2024 24.7103 15.216C24.706 15.292 24.7012 15.3681 24.6953 15.444C24.6941 15.4594 24.6924 15.4746 24.6912 15.4899C24.6851 15.5633 24.6784 15.6367 24.6708 15.7099C24.6687 15.7303 24.6661 15.7506 24.6638 15.771C24.6564 15.8381 24.6486 15.9051 24.6399 15.9721C24.6362 16.0001 24.632 16.0279 24.6281 16.0559C24.6201 16.1138 24.6119 16.1716 24.6028 16.2293C24.5969 16.2668 24.5905 16.3041 24.5841 16.3416C24.5763 16.3883 24.5685 16.4349 24.56 16.4815C24.5513 16.5289 24.5421 16.5759 24.5328 16.623C24.5259 16.6582 24.5189 16.6936 24.5116 16.7288C23.5433 21.3678 19.4222 24.8634 14.5 24.8634C9.57409 24.8634 5.45061 21.3629 4.48617 16.7188C4.47743 16.6767 4.46939 16.6343 4.46124 16.592C4.45335 16.5517 4.44531 16.5113 4.43796 16.4707C4.42752 16.4133 4.41798 16.3556 4.4085 16.298C4.40419 16.2715 4.39945 16.2451 4.39535 16.2186C4.38405 16.1456 4.37372 16.0725 4.36392 15.9993C4.36227 15.9869 4.36024 15.9745 4.3587 15.9621C4.34751 15.8759 4.33729 15.7894 4.32828 15.7029C4.32828 15.7025 4.32818 15.702 4.32818 15.7016C4.29137 15.3479 4.27278 14.9921 4.27278 14.6363C4.27278 14.5561 4.27411 14.4757 4.27603 14.3955C4.27672 14.3691 4.27752 14.3428 4.27837 14.3165C4.28002 14.2625 4.28226 14.2085 4.28482 14.1544C4.28626 14.123 4.28764 14.0915 4.2894 14.0602C4.29212 14.0123 4.29553 13.9645 4.29888 13.9167C4.30479 13.8342 4.31145 13.7517 4.31928 13.6696C4.32019 13.6601 4.32093 13.6507 4.32184 13.6413C4.67105 10.105 6.86122 6.9667 10.0619 5.4208C10.0619 5.42681 10.0615 5.43273 10.0615 5.43875C10.0615 5.84549 10.1175 6.23913 10.2205 6.61359C9.20064 7.15665 8.30506 7.88022 7.55438 8.76983C7.35196 9.00969 7.38238 9.36817 7.62224 9.57048C7.72888 9.6605 7.85896 9.70439 7.98839 9.70439C8.15 9.70439 8.31055 9.63578 8.42289 9.50262C9.05703 8.75113 9.80921 8.13526 10.6633 7.66609C11.4331 8.98694 12.8642 9.87729 14.5001 9.87729C15.0017 9.87729 15.4947 9.79388 15.9649 9.62945C16.1697 9.5578 16.3159 9.37579 16.3416 9.16027C16.3672 8.94481 16.2679 8.7335 16.0856 8.61583C15.4836 8.22693 15.1242 7.56781 15.1242 6.8526C15.1242 5.71957 16.0274 4.79417 17.1516 4.75704C20.9258 5.76682 23.7327 8.81851 24.5103 12.5379C24.5232 12.5994 24.5357 12.6611 24.5473 12.7229C24.5534 12.7551 24.559 12.7876 24.5649 12.82C24.574 12.8706 24.5829 12.9212 24.5912 12.9719C24.5962 13.0023 24.6009 13.0327 24.6057 13.0632C24.6145 13.1202 24.6229 13.1773 24.6306 13.2345C24.6339 13.2583 24.6374 13.2822 24.6405 13.306C24.6621 13.4721 24.6798 13.6388 24.6933 13.8059C24.6949 13.825 24.6961 13.8443 24.6975 13.8635C24.7024 13.9277 24.7067 13.9921 24.7103 14.0564C24.7117 14.0814 24.713 14.1065 24.7143 14.1315C24.7174 14.1928 24.7197 14.2541 24.7216 14.3154C24.7224 14.3391 24.7232 14.3628 24.7239 14.3864C24.7259 14.4697 24.7272 14.553 24.7272 14.6362C24.7271 14.726 24.7259 14.8158 24.7235 14.9054ZM25.7447 16.2807C25.7509 16.2378 25.7565 16.1946 25.7623 16.1515C25.7684 16.106 25.7742 16.0604 25.7798 16.0147C25.7868 15.9574 25.7935 15.9 25.7996 15.8426C25.8036 15.805 25.8073 15.7673 25.8108 15.7295C25.8156 15.68 25.8199 15.6305 25.824 15.581C25.8269 15.5467 25.8299 15.5125 25.8324 15.4781C25.8383 15.3992 25.8433 15.3203 25.8475 15.2413C25.8489 15.2158 25.8498 15.1903 25.851 15.1648C25.8539 15.1013 25.8563 15.0378 25.8582 14.9742C25.859 14.9477 25.8597 14.9212 25.8604 14.8946C25.8623 14.8085 25.8637 14.7224 25.8637 14.6361C25.8637 14.5612 25.8628 14.4862 25.8613 14.4113C25.8607 14.3841 25.8598 14.3569 25.8591 14.3297C25.8579 14.2827 25.8564 14.2356 25.8547 14.1885C25.8533 14.1551 25.8516 14.1216 25.8501 14.0882C25.8482 14.0478 25.8461 14.0074 25.8437 13.967C25.8416 13.9307 25.8393 13.8945 25.8368 13.8582C25.8343 13.8209 25.8315 13.7838 25.8286 13.7465C25.8256 13.7088 25.8227 13.6709 25.8193 13.6333C25.8161 13.5969 25.8125 13.5606 25.809 13.5242C25.8053 13.4867 25.8018 13.4492 25.7978 13.4118C25.7933 13.3695 25.7881 13.3274 25.7831 13.2852C25.7775 13.2383 25.7718 13.1914 25.7656 13.1447C25.7588 13.0936 25.7522 13.0426 25.7448 12.9917C26.4674 13.1894 26.9999 13.8517 26.9999 14.636C26.9998 15.4207 26.4673 16.083 25.7447 16.2807Z" fill="#FEFCF8"/>
<path d="M25.5064 11.8041C24.6129 8.32638 22.1078 5.43544 18.7275 4.0845C18.1436 2.26107 16.4268 0.999878 14.5001 0.999878C12.5241 0.999878 10.8463 2.29809 10.2729 4.08615C8.2371 4.90155 6.49373 6.27711 5.21826 8.07917C4.4125 9.21769 3.83157 10.4763 3.49141 11.8042C2.02429 11.9138 0.86377 13.1416 0.86377 14.6362C0.86377 16.1317 2.02546 17.3602 3.49376 17.4685C4.75548 22.3686 9.21161 25.9999 14.5001 25.9999C19.7884 25.9999 24.2446 22.3686 25.5062 17.4685C26.9745 17.3602 28.1363 16.1317 28.1363 14.6361C28.1363 13.1408 26.9746 11.9125 25.5064 11.8041ZM2.00021 14.6361C2.00021 13.8521 2.53251 13.1901 3.25459 12.9921C3.2058 13.3303 3.17181 13.6717 3.15338 14.0157C3.15306 14.0205 3.1529 14.0252 3.15264 14.03C3.14933 14.0927 3.1464 14.1554 3.14417 14.2182C3.14326 14.242 3.14278 14.2658 3.14214 14.2896C3.14076 14.3346 3.13932 14.3797 3.13847 14.4248C3.13724 14.4952 3.1365 14.5657 3.1365 14.6362C3.1365 14.7222 3.13783 14.8082 3.13985 14.8943C3.14044 14.9212 3.14118 14.9481 3.14204 14.9749C3.14385 15.0375 3.1463 15.1001 3.14917 15.1626C3.15035 15.1891 3.15141 15.2157 3.15274 15.2423C3.1569 15.3204 3.1619 15.3984 3.1676 15.4764C3.17032 15.513 3.17352 15.5494 3.1765 15.586C3.18039 15.6322 3.18444 15.6785 3.18886 15.7247C3.19275 15.7654 3.19674 15.8061 3.20106 15.8467C3.20606 15.8942 3.21176 15.9416 3.21736 15.9891C3.22476 16.0512 3.2327 16.1131 3.24106 16.1748C3.24585 16.2102 3.25027 16.2455 3.25539 16.2807C2.53288 16.083 2.00021 15.4206 2.00021 14.6361ZM14.5001 2.13632C15.6254 2.13632 16.6547 2.71426 17.2555 3.61889C17.2442 3.61878 17.2328 3.61873 17.2215 3.61873C17.2141 3.61873 17.207 3.61926 17.1996 3.61932C17.1968 3.61942 17.1939 3.61937 17.1911 3.61953C15.4219 3.63599 13.9878 5.07962 13.9878 6.8525C13.9878 7.54241 14.2045 8.19833 14.5939 8.73952C14.5627 8.74037 14.5313 8.74085 14.5001 8.74085C12.6793 8.74085 11.1979 7.25951 11.1979 5.43869C11.1979 3.61772 12.6792 2.13632 14.5001 2.13632ZM24.7235 14.9054C24.7232 14.9192 24.7224 14.933 24.722 14.9468C24.7197 15.023 24.7169 15.0991 24.7129 15.1752C24.7122 15.1888 24.7111 15.2024 24.7103 15.216C24.706 15.292 24.7012 15.3681 24.6953 15.444C24.6941 15.4594 24.6924 15.4746 24.6912 15.4899C24.6851 15.5633 24.6784 15.6367 24.6708 15.7099C24.6687 15.7303 24.6661 15.7506 24.6638 15.771C24.6564 15.8381 24.6486 15.9051 24.6399 15.9721C24.6362 16.0001 24.632 16.0279 24.6281 16.0559C24.6201 16.1138 24.6119 16.1716 24.6028 16.2293C24.5969 16.2668 24.5905 16.3041 24.5841 16.3416C24.5763 16.3883 24.5685 16.4349 24.56 16.4815C24.5513 16.5289 24.5421 16.5759 24.5328 16.623C24.5259 16.6582 24.5189 16.6936 24.5116 16.7288C23.5433 21.3678 19.4222 24.8634 14.5 24.8634C9.57409 24.8634 5.45061 21.3629 4.48617 16.7188C4.47743 16.6767 4.46939 16.6343 4.46124 16.592C4.45335 16.5517 4.44531 16.5113 4.43796 16.4707C4.42752 16.4133 4.41798 16.3556 4.4085 16.298C4.40419 16.2715 4.39945 16.2451 4.39535 16.2186C4.38405 16.1456 4.37372 16.0725 4.36392 15.9993C4.36227 15.9869 4.36024 15.9745 4.3587 15.9621C4.34751 15.8759 4.33729 15.7894 4.32828 15.7029C4.32828 15.7025 4.32818 15.702 4.32818 15.7016C4.29137 15.3479 4.27278 14.9921 4.27278 14.6363C4.27278 14.5561 4.27411 14.4757 4.27603 14.3955C4.27672 14.3691 4.27752 14.3428 4.27837 14.3165C4.28002 14.2625 4.28226 14.2085 4.28482 14.1544C4.28626 14.123 4.28764 14.0915 4.2894 14.0602C4.29212 14.0123 4.29553 13.9645 4.29888 13.9167C4.30479 13.8342 4.31145 13.7517 4.31928 13.6696C4.32019 13.6601 4.32093 13.6507 4.32184 13.6413C4.67105 10.105 6.86122 6.9667 10.0619 5.4208C10.0619 5.42681 10.0615 5.43273 10.0615 5.43875C10.0615 5.84549 10.1175 6.23913 10.2205 6.61359C9.20064 7.15665 8.30506 7.88022 7.55438 8.76983C7.35196 9.00969 7.38238 9.36817 7.62224 9.57048C7.72888 9.6605 7.85896 9.70439 7.98839 9.70439C8.15 9.70439 8.31055 9.63578 8.42289 9.50262C9.05703 8.75113 9.80921 8.13526 10.6633 7.66609C11.4331 8.98694 12.8642 9.87729 14.5001 9.87729C15.0017 9.87729 15.4947 9.79388 15.9649 9.62945C16.1697 9.5578 16.3159 9.37579 16.3416 9.16027C16.3672 8.94481 16.2679 8.7335 16.0856 8.61583C15.4836 8.22693 15.1242 7.56781 15.1242 6.8526C15.1242 5.71957 16.0274 4.79417 17.1516 4.75704C20.9258 5.76682 23.7327 8.81851 24.5103 12.5379C24.5232 12.5994 24.5357 12.6611 24.5473 12.7229C24.5534 12.7551 24.559 12.7876 24.5649 12.82C24.574 12.8706 24.5829 12.9212 24.5912 12.9719C24.5962 13.0023 24.6009 13.0327 24.6057 13.0632C24.6145 13.1202 24.6229 13.1773 24.6306 13.2345C24.6339 13.2583 24.6374 13.2822 24.6405 13.306C24.6621 13.4721 24.6798 13.6388 24.6933 13.8059C24.6949 13.825 24.6961 13.8443 24.6975 13.8635C24.7024 13.9277 24.7067 13.9921 24.7103 14.0564C24.7117 14.0814 24.713 14.1065 24.7143 14.1315C24.7174 14.1928 24.7197 14.2541 24.7216 14.3154C24.7224 14.3391 24.7232 14.3628 24.7239 14.3864C24.7259 14.4697 24.7272 14.553 24.7272 14.6362C24.7271 14.726 24.7259 14.8158 24.7235 14.9054ZM25.7447 16.2807C25.7509 16.2378 25.7565 16.1946 25.7623 16.1515C25.7684 16.106 25.7742 16.0604 25.7798 16.0147C25.7868 15.9574 25.7935 15.9 25.7996 15.8426C25.8036 15.805 25.8073 15.7673 25.8108 15.7295C25.8156 15.68 25.8199 15.6305 25.824 15.581C25.8269 15.5467 25.8299 15.5125 25.8324 15.4781C25.8383 15.3992 25.8433 15.3203 25.8475 15.2413C25.8489 15.2158 25.8498 15.1903 25.851 15.1648C25.8539 15.1013 25.8563 15.0378 25.8582 14.9742C25.859 14.9477 25.8597 14.9212 25.8604 14.8946C25.8623 14.8085 25.8637 14.7224 25.8637 14.6361C25.8637 14.5612 25.8628 14.4862 25.8613 14.4113C25.8607 14.3841 25.8598 14.3569 25.8591 14.3297C25.8579 14.2827 25.8564 14.2356 25.8547 14.1885C25.8533 14.1551 25.8516 14.1216 25.8501 14.0882C25.8482 14.0478 25.8461 14.0074 25.8437 13.967C25.8416 13.9307 25.8393 13.8945 25.8368 13.8582C25.8343 13.8209 25.8315 13.7838 25.8286 13.7465C25.8256 13.7088 25.8227 13.6709 25.8193 13.6333C25.8161 13.5969 25.8125 13.5606 25.809 13.5242C25.8053 13.4867 25.8018 13.4492 25.7978 13.4118C25.7933 13.3695 25.7881 13.3274 25.7831 13.2852C25.7775 13.2383 25.7718 13.1914 25.7656 13.1447C25.7588 13.0936 25.7522 13.0426 25.7448 12.9917C26.4674 13.1894 26.9999 13.8517 26.9999 14.636C26.9998 15.4207 26.4673 16.083 25.7447 16.2807Z" stroke="#FEFCF8" stroke-width="0.4" mask="url(#path-1-outside-1_1_1438)"/>
<path d="M8.04012 15.2809L8.04012 15.2809C8.31183 14.2672 9.2344 13.5593 10.2837 13.5593C11.3332 13.5593 12.2556 14.2672 12.5273 15.2809C12.6156 15.6107 12.42 15.9497 12.0901 16.038M8.04012 15.2809L9.23438 15.6009L9.18608 15.588L9.23438 15.6009M8.04012 15.2809C7.95174 15.6107 8.14745 15.9497 8.47721 16.038L8.47723 16.038M8.04012 15.2809L8.47723 16.038M12.0901 16.038L12.0771 15.9897L12.0901 16.038C12.0901 16.038 12.0901 16.038 12.0901 16.038ZM12.0901 16.038C12.0365 16.0524 11.9826 16.0592 11.9297 16.0592C11.6568 16.0592 11.4069 15.8772 11.3329 15.6009C11.2059 15.1268 10.7743 14.7956 10.2836 14.7956C9.79301 14.7956 9.36148 15.1268 9.23438 15.6009M9.23438 15.6009C9.14599 15.9307 8.80707 16.1263 8.47723 16.038M9.23438 15.6009L8.47723 16.038" fill="#FEFCF8" stroke="#FEFCF8" stroke-width="0.1"/>
<path d="M16.473 15.2809L16.473 15.2809C16.7446 14.2672 17.6672 13.5593 18.7166 13.5593C19.766 13.5593 20.6885 14.2672 20.9601 15.2809C21.0485 15.6106 20.8528 15.9497 20.523 16.038L16.473 15.2809ZM16.473 15.2809C16.3847 15.6107 16.5804 15.9497 16.9102 16.038M16.473 15.2809L16.9102 16.038M16.9102 16.038C17.2399 16.1265 17.579 15.9306 17.6673 15.6009M16.9102 16.038L17.6673 15.6009M17.6673 15.6009C17.7943 15.1268 18.2258 14.7956 18.7166 14.7956M17.6673 15.6009C17.6673 15.6009 17.6673 15.6009 17.6673 15.6009L18.7166 14.7956M18.7166 14.7956C19.2073 14.7956 19.6388 15.1268 19.7659 15.6009M18.7166 14.7956L19.7659 15.6009M19.7659 15.6009C19.8399 15.8772 20.0896 16.0592 20.3626 16.0592M19.7659 15.6009L20.3626 16.0592M20.3626 16.0592C20.4156 16.0592 20.4695 16.0524 20.523 16.038L20.3626 16.0592Z" fill="#FEFCF8" stroke="#FEFCF8" stroke-width="0.1"/>
<path d="M16.3067 19.2322L16.3067 19.2322L15.5978 19.6823L15.5495 19.6693C15.5495 19.6693 15.5495 19.6693 15.5495 19.6693C15.4224 20.1435 14.9909 20.4746 14.5003 20.4746C14.0095 20.4746 13.578 20.1435 13.451 19.6693L13.451 19.6693C13.3626 19.3395 13.0236 19.1438 12.6938 19.2322C12.364 19.3206 12.1684 19.6596 12.2567 19.9894C12.5284 21.0031 13.4509 21.711 14.5003 21.711C15.5497 21.711 16.4722 21.0031 16.7439 19.9894L16.7439 19.9893C16.8321 19.6596 16.6364 19.3206 16.3067 19.2322ZM16.294 19.2796L16.294 19.2796L16.294 19.2796Z" fill="#FEFCF8" stroke="#FEFCF8" stroke-width="0.1"/>
</svg>
