<svg width="27" height="23" viewBox="0 0 27 23" fill="none" xmlns="http://www.w3.org/2000/svg">
<path d="M23.4154 12.5552C22.8412 18.2781 17.3744 22.4865 11.1962 21.9547C5.01799 21.4229 0.474806 16.3589 1.04894 10.636C1.5482 5.64148 5.81679 1.69903 11.1962 1.23657C8.32552 4.83218 9.14929 9.8961 13.031 12.5552C16.1138 14.6594 20.3325 14.6594 23.4154 12.5552Z" stroke="#FEFCF8" stroke-width="2" stroke-linecap="round" stroke-linejoin="round"/>
<path d="M19.3215 8.00234C19.1967 7.90985 19.0469 7.87516 18.8971 7.88672H16.5881L18.7598 5.64377L18.972 5.43566L19.0968 5.28536C19.1343 5.23911 19.1592 5.1813 19.1842 5.13506C19.2091 5.07725 19.2216 5.01944 19.2216 4.95007C19.2341 4.79977 19.1592 4.66103 19.0219 4.5801C18.8472 4.49917 18.6475 4.46448 18.4478 4.47604H15.7269C15.5896 4.46448 15.4398 4.51073 15.3275 4.59166C15.2276 4.66103 15.1777 4.77665 15.1777 4.89226C15.1777 5.06569 15.2401 5.16974 15.3649 5.21599C15.5396 5.26224 15.7269 5.28536 15.9141 5.2738H17.6739C17.5991 5.36629 17.5117 5.48191 17.3869 5.60908L16.9376 6.08311L16.3384 6.70744L15.652 7.43582C15.4024 7.69017 15.2401 7.8636 15.1652 7.95609C15.003 8.15264 15.0279 8.41856 15.2151 8.59198C15.3649 8.69604 15.5396 8.74228 15.7144 8.73072H18.9096C19.0594 8.74228 19.2091 8.69604 19.334 8.6151C19.4213 8.53417 19.4713 8.43012 19.4713 8.3145C19.4713 8.18732 19.4213 8.08327 19.3215 8.00234Z" fill="white"/>
<path d="M26.5357 4.41829C26.386 4.30267 26.1987 4.25642 26.0115 4.26799H23.1034L25.8243 1.45852L26.0739 1.1926L26.2362 1.00762C26.2861 0.949809 26.3235 0.880439 26.3485 0.81107C26.386 0.7417 26.3984 0.660769 26.3984 0.579838C26.4234 0.394852 26.3235 0.209867 26.1488 0.117374C25.9117 0.0364429 25.662 -0.00980351 25.4124 0.00175808H22.005C21.8303 -0.00980351 21.6431 0.0364429 21.5058 0.140497C21.3934 0.23299 21.3185 0.371729 21.331 0.52203C21.331 0.7417 21.4059 0.868878 21.5682 0.915124C21.7928 0.972932 22.0175 0.996055 22.2546 0.996055H24.4514C24.364 1.11167 24.2392 1.25041 24.0894 1.41227L23.5153 2.01348L22.7664 2.77654L21.8802 3.68991C21.5682 4.01363 21.3685 4.22174 21.2811 4.32579C21.0689 4.56859 21.0939 4.927 21.3435 5.14667C21.5307 5.27384 21.7554 5.33165 21.98 5.32009H25.9866C26.1863 5.34321 26.3735 5.29697 26.5357 5.19291C26.6481 5.10042 26.7229 4.96168 26.7105 4.81138C26.7229 4.66108 26.6605 4.52234 26.5357 4.41829Z" fill="white"/>
</svg>
