<svg width="414" height="896" viewBox="0 0 414 896" fill="none" xmlns="http://www.w3.org/2000/svg">
<g clip-path="url(#clip0_1_3978)">
<rect width="414" height="896" fill="#FAF2DA"/>
<path opacity="0.2" d="M58.335 415.944C68.6431 349.555 29.8674 284.707 -33.5116 262.349C-40.5246 259.874 -44.4911 252.46 -42.6742 245.248L-35.2684 215.826C-33.2125 207.667 -24.6416 203.021 -16.6589 205.696C3.69095 212.517 22.6274 222.492 39.7943 235.454C60.3612 250.983 77.5209 270.111 90.7977 292.312C104.075 314.514 112.804 338.68 116.746 364.139C120.035 385.394 119.863 406.785 116.235 427.934C114.812 436.227 106.659 441.576 98.4959 439.523L69.0637 432.113C61.8496 430.295 57.1921 423.289 58.335 415.944Z" fill="#FEFCF8"/>
<path opacity="0.2" d="M357.426 416.772C349.596 483.499 390.759 546.858 454.926 566.842C462.027 569.054 466.266 576.315 464.719 583.59L458.414 613.267C456.663 621.497 448.271 626.459 440.194 624.083C419.604 618.024 400.31 608.761 382.672 596.447C361.542 581.694 343.682 563.219 329.588 541.527C315.494 519.835 305.871 496.01 300.984 470.715C296.906 449.597 296.282 428.215 299.12 406.946C300.233 398.606 308.182 392.957 316.416 394.704L346.103 401.013C353.38 402.562 358.295 409.39 357.426 416.772Z" fill="#FEFCF8"/>
<path opacity="0.5" d="M49.2839 900.224C51.0138 906.454 55.8039 930.284 59.6039 959.594C62.7238 983.754 43.9639 1005.17 19.6138 1005.17L5.71385 1005.17C-16.6261 1005.17 -34.7162 987.014 -34.6162 964.674C-34.1162 850.994 -30.8561 678.084 -20.4261 663.434C-11.7061 651.194 -2.07611 626.164 4.46389 606.734C12.2439 583.644 25.8439 562.884 44.2239 546.894C44.7739 546.414 45.3239 545.944 45.8639 545.494C57.5039 535.694 71.6239 529.274 86.6139 526.674C206.674 505.874 237.274 590.814 237.374 639.044C237.374 639.904 237.404 640.764 237.454 641.624C238.864 669.244 219.464 729.054 129.834 757.654C38.7739 786.694 38.1839 864.804 49.2839 900.224Z" fill="#FEFCF8"/>
<path opacity="0.5" d="M343.1 75.2207C341.37 68.9907 336.58 45.1608 332.78 15.8508C329.66 -8.30925 348.42 -29.7292 372.77 -29.7292H386.67C409.01 -29.7292 427.1 -11.5692 427 10.7708C426.5 124.451 423.24 297.361 412.81 312.011C404.09 324.251 394.46 349.281 387.92 368.711C380.14 391.801 366.54 412.561 348.16 428.551C347.61 429.031 347.06 429.501 346.52 429.951C334.88 439.751 320.76 446.171 305.77 448.771C185.71 469.571 155.11 384.631 155.01 336.401C155.01 335.541 154.98 334.681 154.93 333.821C153.52 306.201 172.92 246.391 262.55 217.791C353.61 188.751 354.2 110.641 343.1 75.2207Z" fill="#FEFCF8"/>
<circle opacity="0.5" cx="80.0667" cy="75.2242" r="104.953" fill="#FEFCF8"/>
<circle opacity="0.5" cx="367.629" cy="799.6" r="104.953" transform="rotate(70.9462 367.629 799.6)" fill="#FEFCF8"/>
<rect x="75" y="85" width="55" height="55" rx="27.5" transform="rotate(-180 75 85)" fill="white"/>
<path d="M40.5664 64.3574L54.2388 50.6853M40.735 50.6423C40.735 50.6423 49.2809 59.1883 54.4331 64.3404L40.735 50.6423Z" stroke="#4A503D" stroke-width="2.3" stroke-linecap="round" stroke-linejoin="round"/>
<g opacity="0.79">
<rect opacity="0.5" x="324" y="85" width="55" height="55" rx="27.5" transform="rotate(-180 324 85)" fill="#E28F83"/>
</g>
<path d="M304.222 50.9213C302.344 48.9305 299.305 48.9305 297.427 50.9213L297.278 51.0787C296.851 51.5324 296.152 51.5324 295.715 51.0787C294.082 49.3379 291.462 48.8935 289.532 50.2639C286.929 52.125 286.676 55.8935 288.781 58.125L289.706 59.1065L295.313 65.0509C295.968 65.7454 297.025 65.7454 297.68 65.0509L303.287 59.1065L304.213 58.125C306.099 56.1342 306.099 52.912 304.222 50.9213Z" stroke="#FAF2DA" stroke-width="2" stroke-linecap="round" stroke-linejoin="round"/>
<rect opacity="0.5" x="394" y="85" width="55" height="55" rx="27.5" transform="rotate(-180 394 85)" fill="#E28F83"/>
<path d="M371.5 54.75L366.5 59.75L361.5 54.75M366.5 58.55V48.25M357.5 60.75V64.75C357.5 65.85 358.4 66.75 359.5 66.75H373.5C374.03 66.75 374.539 66.5393 374.914 66.1642C375.289 65.7891 375.5 65.2804 375.5 64.75V60.75H357.5Z" stroke="#FAF2DA" stroke-width="2" stroke-linecap="round" stroke-linejoin="round"/>
<circle opacity="0.2" cx="207" cy="583" r="55" fill="#A1A4B2"/>
<circle cx="207" cy="583" r="44" fill="#8E9775"/>
<rect x="197.011" y="570.548" width="6.81957" height="24.9159" rx="3.40979" fill="#FBFBFB"/>
<rect x="210.171" y="570.548" width="6.81957" height="24.9159" rx="3.40979" fill="#FBFBFB"/>
<path d="M335.88 563.492L340.206 570.986L332.713 575.312M345.465 580.555C345.982 583.8 345.376 587.125 343.746 589.978C342.116 592.832 339.561 595.043 336.503 596.246C333.445 597.449 330.068 597.572 326.931 596.594C323.794 595.615 321.085 593.595 319.252 590.867C317.42 588.14 316.574 584.868 316.855 581.594C317.136 578.32 318.526 575.24 320.796 572.864C323.066 570.488 326.079 568.958 329.337 568.529C332.595 568.099 335.902 568.794 338.711 570.5" stroke="#A0A3B1" stroke-width="2" stroke-linecap="round" stroke-linejoin="round"/>
<path d="M327.448 587.508H326.031V580.659L323.939 581.374V580.172L327.267 578.948H327.448V587.508ZM330.794 583.278L331.257 578.977H335.839V580.208H332.441L332.206 582.247C332.601 582.02 333.046 581.907 333.542 581.907C334.355 581.907 334.986 582.167 335.435 582.686C335.888 583.206 336.115 583.905 336.115 584.784C336.115 585.651 335.865 586.342 335.365 586.858C334.865 587.37 334.179 587.625 333.308 587.625C332.527 587.625 331.878 587.405 331.363 586.963C330.851 586.518 330.573 585.932 330.531 585.206H331.907C331.962 585.62 332.111 585.938 332.353 586.161C332.595 586.379 332.911 586.489 333.302 586.489C333.74 586.489 334.079 586.333 334.322 586.02C334.568 585.708 334.691 585.282 334.691 584.743C334.691 584.223 334.556 583.813 334.286 583.512C334.017 583.208 333.646 583.055 333.173 583.055C332.915 583.055 332.697 583.09 332.517 583.161C332.337 583.227 332.142 583.36 331.931 583.559L330.794 583.278Z" fill="#A0A3B1"/>
<path d="M78.1202 563.492L73.7938 570.986L81.2874 575.312M68.5352 580.555C68.0178 583.8 68.6242 587.125 70.254 589.978C71.8838 592.832 74.4392 595.043 77.4971 596.246C80.555 597.449 83.9321 597.572 87.0692 596.594C90.2064 595.615 92.9154 593.595 94.7477 590.867C96.5801 588.14 97.4259 584.868 97.1452 581.594C96.8645 578.32 95.474 575.24 93.2041 572.864C90.9341 570.488 87.9207 568.958 84.6629 568.529C81.4051 568.099 78.0981 568.794 75.2896 570.5" stroke="#A0A3B1" stroke-width="2" stroke-linecap="round" stroke-linejoin="round"/>
<path d="M79.6267 587.508H78.2087V580.659L76.1169 581.374V580.172L79.4451 578.948H79.6267V587.508ZM82.9724 583.278L83.4353 578.977H88.0173V580.208H84.6189L84.3845 582.247C84.7791 582.02 85.2244 581.907 85.7205 581.907C86.533 581.907 87.1638 582.167 87.613 582.686C88.0662 583.206 88.2927 583.905 88.2927 584.784C88.2927 585.651 88.0427 586.342 87.5427 586.858C87.0427 587.37 86.3572 587.625 85.4861 587.625C84.7048 587.625 84.0564 587.405 83.5408 586.963C83.0291 586.518 82.7517 585.932 82.7087 585.206H84.0857C84.1404 585.62 84.2888 585.938 84.531 586.161C84.7732 586.379 85.0896 586.489 85.4802 586.489C85.9177 586.489 86.2576 586.333 86.4998 586.02C86.7458 585.708 86.8689 585.282 86.8689 584.743C86.8689 584.223 86.7341 583.813 86.4646 583.512C86.1951 583.208 85.824 583.055 85.3513 583.055C85.0935 583.055 84.8748 583.09 84.6951 583.161C84.5154 583.227 84.3201 583.36 84.1091 583.559L82.9724 583.278Z" fill="#A0A3B1"/>
<path opacity="0.5" d="M373.721 696.024L40.2788 696.024" stroke="#A0A3B1" stroke-width="3" stroke-linecap="round" stroke-linejoin="round"/>
<path d="M69.0235 696.024L40.2788 696.024" stroke="#4A503D" stroke-width="3" stroke-linecap="round" stroke-linejoin="round"/>
<path d="M44.096 732.192C43.0293 732.192 42.1867 731.739 41.568 730.832C40.9493 729.915 40.64 728.592 40.64 726.864C40.64 725.136 40.9493 723.835 41.568 722.96C42.1867 722.075 43.0293 721.632 44.096 721.632C45.1627 721.632 46.0053 722.075 46.624 722.96C47.2427 723.845 47.552 725.147 47.552 726.864C47.552 728.592 47.2427 729.915 46.624 730.832C46.0053 731.739 45.1627 732.192 44.096 732.192ZM44.096 730.752C44.3413 730.752 44.5653 730.688 44.768 730.56C44.9813 730.421 45.1627 730.197 45.312 729.888C45.4613 729.579 45.5787 729.179 45.664 728.688C45.7493 728.197 45.792 727.589 45.792 726.864C45.792 726.149 45.7493 725.552 45.664 725.072C45.5787 724.581 45.4613 724.187 45.312 723.888C45.1627 723.589 44.9813 723.381 44.768 723.264C44.5653 723.136 44.3413 723.072 44.096 723.072C43.8507 723.072 43.6213 723.136 43.408 723.264C43.2053 723.381 43.0293 723.589 42.88 723.888C42.7307 724.187 42.6133 724.581 42.528 725.072C42.4427 725.552 42.4 726.149 42.4 726.864C42.4 727.589 42.4427 728.197 42.528 728.688C42.6133 729.179 42.7307 729.579 42.88 729.888C43.0293 730.197 43.2053 730.421 43.408 730.56C43.6213 730.688 43.8507 730.752 44.096 730.752ZM50.1871 732V730.496H52.4591V723.808H50.5871V722.656C51.0991 722.56 51.5365 722.448 51.8991 722.32C52.2725 722.181 52.6191 722.016 52.9391 721.824H54.3151V730.496H56.3151V732H50.1871ZM60.2143 726.72C59.8729 726.72 59.5849 726.603 59.3503 726.368C59.1263 726.133 59.0143 725.835 59.0143 725.472C59.0143 725.109 59.1263 724.811 59.3503 724.576C59.5849 724.341 59.8729 724.224 60.2143 724.224C60.5556 724.224 60.8383 724.341 61.0623 724.576C61.2863 724.811 61.3983 725.109 61.3983 725.472C61.3983 725.835 61.2863 726.133 61.0623 726.368C60.8383 726.603 60.5556 726.72 60.2143 726.72ZM60.2143 732.192C59.8729 732.192 59.5849 732.075 59.3503 731.84C59.1263 731.605 59.0143 731.307 59.0143 730.944C59.0143 730.581 59.1263 730.283 59.3503 730.048C59.5849 729.813 59.8729 729.696 60.2143 729.696C60.5556 729.696 60.8383 729.813 61.0623 730.048C61.2863 730.283 61.3983 730.581 61.3983 730.944C61.3983 731.307 61.2863 731.605 61.0623 731.84C60.8383 732.075 60.5556 732.192 60.2143 732.192ZM67.0525 732.192C66.2205 732.192 65.5272 732.053 64.9725 731.776C64.4178 731.499 63.9592 731.157 63.5965 730.752L64.4765 729.568C64.7858 729.877 65.1378 730.144 65.5325 730.368C65.9272 730.581 66.3805 730.688 66.8925 730.688C67.4472 730.688 67.8952 730.555 68.2365 730.288C68.5885 730.011 68.7645 729.632 68.7645 729.152C68.7645 728.885 68.7165 728.645 68.6205 728.432C68.5245 728.219 68.3592 728.037 68.1245 727.888C67.9005 727.739 67.5965 727.627 67.2125 727.552C66.8285 727.467 66.3485 727.424 65.7725 727.424V726.08C66.2738 726.08 66.6898 726.043 67.0205 725.968C67.3618 725.883 67.6338 725.771 67.8365 725.632C68.0498 725.483 68.1992 725.307 68.2845 725.104C68.3805 724.901 68.4285 724.683 68.4285 724.448C68.4285 724.021 68.2952 723.691 68.0285 723.456C67.7618 723.211 67.3938 723.088 66.9245 723.088C66.5192 723.088 66.1512 723.179 65.8205 723.36C65.5005 723.531 65.1858 723.76 64.8765 724.048L63.9325 722.912C64.3698 722.528 64.8338 722.219 65.3245 721.984C65.8258 721.749 66.3805 721.632 66.9885 721.632C67.4792 721.632 67.9272 721.691 68.3325 721.808C68.7378 721.925 69.0845 722.101 69.3725 722.336C69.6605 722.56 69.8845 722.843 70.0445 723.184C70.2045 723.515 70.2845 723.893 70.2845 724.32C70.2845 724.896 70.1245 725.376 69.8045 725.76C69.4952 726.144 69.0632 726.443 68.5085 726.656V726.72C69.1165 726.88 69.6178 727.173 70.0125 727.6C70.4178 728.027 70.6205 728.576 70.6205 729.248C70.6205 729.717 70.5245 730.133 70.3325 730.496C70.1512 730.859 69.8952 731.168 69.5645 731.424C69.2445 731.669 68.8658 731.861 68.4285 732C68.0018 732.128 67.5432 732.192 67.0525 732.192ZM76.3116 732.192C75.245 732.192 74.4023 731.739 73.7836 730.832C73.165 729.915 72.8556 728.592 72.8556 726.864C72.8556 725.136 73.165 723.835 73.7836 722.96C74.4023 722.075 75.245 721.632 76.3116 721.632C77.3783 721.632 78.221 722.075 78.8396 722.96C79.4583 723.845 79.7676 725.147 79.7676 726.864C79.7676 728.592 79.4583 729.915 78.8396 730.832C78.221 731.739 77.3783 732.192 76.3116 732.192ZM76.3116 730.752C76.557 730.752 76.781 730.688 76.9836 730.56C77.197 730.421 77.3783 730.197 77.5276 729.888C77.677 729.579 77.7943 729.179 77.8796 728.688C77.965 728.197 78.0076 727.589 78.0076 726.864C78.0076 726.149 77.965 725.552 77.8796 725.072C77.7943 724.581 77.677 724.187 77.5276 723.888C77.3783 723.589 77.197 723.381 76.9836 723.264C76.781 723.136 76.557 723.072 76.3116 723.072C76.0663 723.072 75.837 723.136 75.6236 723.264C75.421 723.381 75.245 723.589 75.0956 723.888C74.9463 724.187 74.829 724.581 74.7436 725.072C74.6583 725.552 74.6156 726.149 74.6156 726.864C74.6156 727.589 74.6583 728.197 74.7436 728.688C74.829 729.179 74.9463 729.579 75.0956 729.888C75.245 730.197 75.421 730.421 75.6236 730.56C75.837 730.688 76.0663 730.752 76.3116 730.752Z" fill="#4A503D"/>
<path d="M338.365 732V729.376H333.869V728.128L337.901 721.824H340.093V727.952H341.373V729.376H340.093V732H338.365ZM335.693 727.952H338.365V725.648C338.365 725.349 338.371 724.997 338.381 724.592C338.403 724.187 338.424 723.835 338.445 723.536H338.381C338.253 723.803 338.12 724.064 337.981 724.32C337.843 724.576 337.699 724.843 337.549 725.12L335.693 727.952ZM346.44 732.192C345.619 732.192 344.926 732.053 344.36 731.776C343.806 731.488 343.342 731.157 342.968 730.784L343.816 729.6C344.126 729.888 344.472 730.144 344.856 730.368C345.24 730.581 345.688 730.688 346.2 730.688C346.776 730.688 347.246 730.517 347.608 730.176C347.982 729.835 348.168 729.355 348.168 728.736C348.168 728.128 347.998 727.659 347.656 727.328C347.315 726.997 346.862 726.832 346.296 726.832C345.966 726.832 345.688 726.88 345.464 726.976C345.24 727.061 344.974 727.205 344.664 727.408L343.784 726.848L344.088 721.824H349.528V723.376H345.688L345.48 725.84C345.694 725.733 345.902 725.653 346.104 725.6C346.318 725.536 346.558 725.504 346.824 725.504C347.262 725.504 347.672 725.568 348.056 725.696C348.451 725.824 348.792 726.021 349.08 726.288C349.368 726.544 349.598 726.875 349.768 727.28C349.939 727.675 350.024 728.144 350.024 728.688C350.024 729.243 349.923 729.739 349.72 730.176C349.528 730.613 349.267 730.981 348.936 731.28C348.606 731.579 348.222 731.808 347.784 731.968C347.358 732.117 346.91 732.192 346.44 732.192ZM353.796 726.72C353.454 726.72 353.166 726.603 352.932 726.368C352.708 726.133 352.596 725.835 352.596 725.472C352.596 725.109 352.708 724.811 352.932 724.576C353.166 724.341 353.454 724.224 353.796 724.224C354.137 724.224 354.42 724.341 354.644 724.576C354.868 724.811 354.98 725.109 354.98 725.472C354.98 725.835 354.868 726.133 354.644 726.368C354.42 726.603 354.137 726.72 353.796 726.72ZM353.796 732.192C353.454 732.192 353.166 732.075 352.932 731.84C352.708 731.605 352.596 731.307 352.596 730.944C352.596 730.581 352.708 730.283 352.932 730.048C353.166 729.813 353.454 729.696 353.796 729.696C354.137 729.696 354.42 729.813 354.644 730.048C354.868 730.283 354.98 730.581 354.98 730.944C354.98 731.307 354.868 731.605 354.644 731.84C354.42 732.075 354.137 732.192 353.796 732.192ZM360.89 732.192C359.823 732.192 358.98 731.739 358.362 730.832C357.743 729.915 357.434 728.592 357.434 726.864C357.434 725.136 357.743 723.835 358.362 722.96C358.98 722.075 359.823 721.632 360.89 721.632C361.956 721.632 362.799 722.075 363.418 722.96C364.036 723.845 364.346 725.147 364.346 726.864C364.346 728.592 364.036 729.915 363.418 730.832C362.799 731.739 361.956 732.192 360.89 732.192ZM360.89 730.752C361.135 730.752 361.359 730.688 361.562 730.56C361.775 730.421 361.956 730.197 362.106 729.888C362.255 729.579 362.372 729.179 362.458 728.688C362.543 728.197 362.586 727.589 362.586 726.864C362.586 726.149 362.543 725.552 362.458 725.072C362.372 724.581 362.255 724.187 362.106 723.888C361.956 723.589 361.775 723.381 361.562 723.264C361.359 723.136 361.135 723.072 360.89 723.072C360.644 723.072 360.415 723.136 360.202 723.264C359.999 723.381 359.823 723.589 359.674 723.888C359.524 724.187 359.407 724.581 359.322 725.072C359.236 725.552 359.194 726.149 359.194 726.864C359.194 727.589 359.236 728.197 359.322 728.688C359.407 729.179 359.524 729.579 359.674 729.888C359.823 730.197 359.999 730.421 360.202 730.56C360.415 730.688 360.644 730.752 360.89 730.752ZM369.893 732.192C368.826 732.192 367.984 731.739 367.365 730.832C366.746 729.915 366.437 728.592 366.437 726.864C366.437 725.136 366.746 723.835 367.365 722.96C367.984 722.075 368.826 721.632 369.893 721.632C370.96 721.632 371.802 722.075 372.421 722.96C373.04 723.845 373.349 725.147 373.349 726.864C373.349 728.592 373.04 729.915 372.421 730.832C371.802 731.739 370.96 732.192 369.893 732.192ZM369.893 730.752C370.138 730.752 370.362 730.688 370.565 730.56C370.778 730.421 370.96 730.197 371.109 729.888C371.258 729.579 371.376 729.179 371.461 728.688C371.546 728.197 371.589 727.589 371.589 726.864C371.589 726.149 371.546 725.552 371.461 725.072C371.376 724.581 371.258 724.187 371.109 723.888C370.96 723.589 370.778 723.381 370.565 723.264C370.362 723.136 370.138 723.072 369.893 723.072C369.648 723.072 369.418 723.136 369.205 723.264C369.002 723.381 368.826 723.589 368.677 723.888C368.528 724.187 368.41 724.581 368.325 725.072C368.24 725.552 368.197 726.149 368.197 726.864C368.197 727.589 368.24 728.197 368.325 728.688C368.41 729.179 368.528 729.579 368.677 729.888C368.826 730.197 369.002 730.421 369.205 730.56C369.418 730.688 369.648 730.752 369.893 730.752Z" fill="#4A503D"/>
<circle opacity="0.25" cx="72.9792" cy="696.024" r="8.5" fill="#3F414E"/>
<circle cx="72.9792" cy="696.024" r="6.5" fill="#4A503D"/>
<path d="M67.6986 426V402.6H82.9626V407.784H73.8906V412.248H81.6666V417.432H73.8906V426H67.6986ZM95.9442 426.432C94.7922 426.432 93.6762 426.228 92.5962 425.82C91.5162 425.388 90.5562 424.776 89.7162 423.984C88.9002 423.168 88.2402 422.172 87.7362 420.996C87.2562 419.82 87.0162 418.488 87.0162 417C87.0162 415.512 87.2562 414.18 87.7362 413.004C88.2402 411.828 88.9002 410.844 89.7162 410.052C90.5562 409.236 91.5162 408.624 92.5962 408.216C93.6762 407.784 94.7922 407.568 95.9442 407.568C97.0962 407.568 98.2002 407.784 99.2562 408.216C100.336 408.624 101.284 409.236 102.1 410.052C102.94 410.844 103.612 411.828 104.116 413.004C104.62 414.18 104.872 415.512 104.872 417C104.872 418.488 104.62 419.82 104.116 420.996C103.612 422.172 102.94 423.168 102.1 423.984C101.284 424.776 100.336 425.388 99.2562 425.82C98.2002 426.228 97.0962 426.432 95.9442 426.432ZM95.9442 421.464C96.8802 421.464 97.5402 421.068 97.9242 420.276C98.3322 419.46 98.5362 418.368 98.5362 417C98.5362 415.632 98.3322 414.552 97.9242 413.76C97.5402 412.944 96.8802 412.536 95.9442 412.536C95.0082 412.536 94.3362 412.944 93.9282 413.76C93.5442 414.552 93.3522 415.632 93.3522 417C93.3522 418.368 93.5442 419.46 93.9282 420.276C94.3362 421.068 95.0082 421.464 95.9442 421.464ZM118.393 426.432C117.121 426.432 115.933 426.228 114.829 425.82C113.725 425.388 112.765 424.776 111.949 423.984C111.133 423.168 110.485 422.172 110.005 420.996C109.549 419.82 109.321 418.488 109.321 417C109.321 415.512 109.585 414.18 110.113 413.004C110.641 411.828 111.349 410.844 112.237 410.052C113.125 409.236 114.145 408.624 115.297 408.216C116.473 407.784 117.697 407.568 118.969 407.568C120.049 407.568 121.021 407.736 121.885 408.072C122.749 408.408 123.529 408.864 124.225 409.44L121.345 413.4C120.937 413.064 120.577 412.836 120.265 412.716C119.977 412.596 119.665 412.536 119.329 412.536C118.177 412.536 117.277 412.944 116.629 413.76C115.981 414.552 115.657 415.632 115.657 417C115.657 418.368 115.981 419.46 116.629 420.276C117.301 421.068 118.129 421.464 119.113 421.464C119.617 421.464 120.109 421.356 120.589 421.14C121.093 420.924 121.561 420.648 121.993 420.312L124.369 424.344C123.457 425.136 122.461 425.688 121.381 426C120.325 426.288 119.329 426.432 118.393 426.432ZM134.869 426.432C133.885 426.432 133.033 426.264 132.313 425.928C131.617 425.568 131.041 425.076 130.585 424.452C130.129 423.804 129.793 423.036 129.577 422.148C129.361 421.236 129.253 420.216 129.253 419.088V408H135.445V418.296C135.445 419.448 135.589 420.216 135.877 420.6C136.165 420.984 136.621 421.176 137.245 421.176C137.821 421.176 138.289 421.056 138.649 420.816C139.033 420.576 139.429 420.168 139.837 419.592V408H146.029V426H140.989L140.557 423.624H140.413C139.693 424.488 138.889 425.172 138.001 425.676C137.137 426.18 136.093 426.432 134.869 426.432ZM157.914 426.432C156.762 426.432 155.538 426.204 154.242 425.748C152.97 425.292 151.866 424.68 150.93 423.912L153.666 420.096C155.298 421.296 156.762 421.896 158.058 421.896C158.706 421.896 159.162 421.812 159.426 421.644C159.714 421.452 159.858 421.176 159.858 420.816C159.858 420.576 159.762 420.372 159.57 420.204C159.378 420.012 159.114 419.844 158.778 419.7C158.466 419.532 158.106 419.376 157.698 419.232C157.29 419.088 156.858 418.92 156.402 418.728C155.874 418.512 155.334 418.26 154.782 417.972C154.254 417.66 153.774 417.288 153.342 416.856C152.91 416.424 152.55 415.932 152.262 415.38C151.998 414.804 151.866 414.144 151.866 413.4C151.866 412.512 152.034 411.708 152.37 410.988C152.73 410.268 153.222 409.656 153.846 409.152C154.47 408.648 155.214 408.264 156.078 408C156.966 407.712 157.938 407.568 158.994 407.568C160.482 407.568 161.754 407.82 162.81 408.324C163.89 408.804 164.826 409.344 165.618 409.944L162.882 413.616C162.234 413.136 161.598 412.764 160.974 412.5C160.35 412.236 159.762 412.104 159.21 412.104C158.154 412.104 157.626 412.44 157.626 413.112C157.626 413.352 157.71 413.556 157.878 413.724C158.07 413.892 158.322 414.048 158.634 414.192C158.946 414.336 159.306 414.48 159.714 414.624C160.122 414.744 160.554 414.888 161.01 415.056C161.538 415.248 162.078 415.488 162.63 415.776C163.182 416.064 163.674 416.424 164.106 416.856C164.562 417.264 164.922 417.768 165.186 418.368C165.474 418.944 165.618 419.64 165.618 420.456C165.618 421.296 165.45 422.088 165.114 422.832C164.778 423.552 164.286 424.188 163.638 424.74C162.99 425.268 162.186 425.688 161.226 426C160.266 426.288 159.162 426.432 157.914 426.432ZM186.726 414.624L186.33 416.244H190.65L190.254 414.624C189.966 413.496 189.678 412.272 189.39 410.952C189.102 409.632 188.814 408.384 188.526 407.208H188.382C188.118 408.408 187.842 409.668 187.554 410.988C187.29 412.284 187.014 413.496 186.726 414.624ZM177.726 426L184.854 402.6H192.342L199.47 426H192.918L191.766 421.032H185.214L184.062 426H177.726ZM210.07 426.432C208.894 426.432 207.886 426.264 207.046 425.928C206.23 425.568 205.546 425.064 204.994 424.416C204.466 423.768 204.07 423 203.806 422.112C203.566 421.2 203.446 420.192 203.446 419.088V412.824H201.07V408.216L203.806 408L204.526 403.32H209.638V408H213.742V412.824H209.638V418.98C209.638 419.988 209.854 420.684 210.286 421.068C210.718 421.428 211.222 421.608 211.798 421.608C212.086 421.608 212.362 421.584 212.626 421.536C212.914 421.464 213.166 421.392 213.382 421.32L214.318 425.784C213.838 425.928 213.262 426.072 212.59 426.216C211.918 426.36 211.078 426.432 210.07 426.432ZM225.941 426.432C224.765 426.432 223.757 426.264 222.917 425.928C222.101 425.568 221.417 425.064 220.865 424.416C220.337 423.768 219.941 423 219.677 422.112C219.437 421.2 219.317 420.192 219.317 419.088V412.824H216.941V408.216L219.677 408L220.397 403.32H225.509V408H229.613V412.824H225.509V418.98C225.509 419.988 225.725 420.684 226.157 421.068C226.589 421.428 227.093 421.608 227.669 421.608C227.957 421.608 228.233 421.584 228.497 421.536C228.785 421.464 229.037 421.392 229.253 421.32L230.189 425.784C229.709 425.928 229.133 426.072 228.461 426.216C227.789 426.36 226.949 426.432 225.941 426.432ZM242.748 426.432C241.428 426.432 240.204 426.228 239.076 425.82C237.948 425.388 236.964 424.776 236.124 423.984C235.308 423.168 234.66 422.172 234.18 420.996C233.7 419.82 233.46 418.488 233.46 417C233.46 415.536 233.7 414.228 234.18 413.076C234.684 411.9 235.332 410.904 236.124 410.088C236.94 409.272 237.864 408.648 238.896 408.216C239.928 407.784 240.996 407.568 242.1 407.568C243.42 407.568 244.572 407.796 245.556 408.252C246.54 408.708 247.356 409.332 248.004 410.124C248.652 410.916 249.132 411.84 249.444 412.896C249.78 413.952 249.948 415.08 249.948 416.28C249.948 416.832 249.912 417.348 249.84 417.828C249.792 418.308 249.744 418.656 249.696 418.872H239.436C239.724 419.952 240.24 420.708 240.984 421.14C241.728 421.548 242.604 421.752 243.612 421.752C244.236 421.752 244.836 421.668 245.412 421.5C246.012 421.308 246.636 421.032 247.284 420.672L249.3 424.344C248.316 425.04 247.224 425.568 246.024 425.928C244.848 426.264 243.756 426.432 242.748 426.432ZM239.364 414.84H244.692C244.692 414.144 244.512 413.544 244.152 413.04C243.816 412.512 243.18 412.248 242.244 412.248C241.548 412.248 240.936 412.452 240.408 412.86C239.904 413.268 239.556 413.928 239.364 414.84ZM255.506 426V408H260.546L260.978 410.16H261.122C261.842 409.464 262.658 408.864 263.57 408.36C264.506 407.832 265.586 407.568 266.81 407.568C268.778 407.568 270.206 408.24 271.094 409.584C271.982 410.904 272.426 412.68 272.426 414.912V426H266.234V415.704C266.234 414.552 266.09 413.784 265.802 413.4C265.514 413.016 265.058 412.824 264.434 412.824C263.858 412.824 263.378 412.944 262.994 413.184C262.61 413.424 262.178 413.76 261.698 414.192V426H255.506ZM286.035 426.432C284.859 426.432 283.851 426.264 283.011 425.928C282.195 425.568 281.511 425.064 280.959 424.416C280.431 423.768 280.035 423 279.771 422.112C279.531 421.2 279.411 420.192 279.411 419.088V412.824H277.035V408.216L279.771 408L280.491 403.32H285.603V408H289.707V412.824H285.603V418.98C285.603 419.988 285.819 420.684 286.251 421.068C286.683 421.428 287.187 421.608 287.763 421.608C288.051 421.608 288.327 421.584 288.591 421.536C288.879 421.464 289.131 421.392 289.347 421.32L290.283 425.784C289.803 425.928 289.227 426.072 288.555 426.216C287.883 426.36 287.043 426.432 286.035 426.432ZM295.193 426V408H301.385V426H295.193ZM298.289 405.768C297.281 405.768 296.453 405.48 295.805 404.904C295.157 404.328 294.833 403.584 294.833 402.672C294.833 401.76 295.157 401.016 295.805 400.44C296.453 399.864 297.281 399.576 298.289 399.576C299.297 399.576 300.125 399.864 300.773 400.44C301.421 401.016 301.745 401.76 301.745 402.672C301.745 403.584 301.421 404.328 300.773 404.904C300.125 405.48 299.297 405.768 298.289 405.768ZM315.716 426.432C314.564 426.432 313.448 426.228 312.368 425.82C311.288 425.388 310.328 424.776 309.488 423.984C308.672 423.168 308.012 422.172 307.508 420.996C307.028 419.82 306.788 418.488 306.788 417C306.788 415.512 307.028 414.18 307.508 413.004C308.012 411.828 308.672 410.844 309.488 410.052C310.328 409.236 311.288 408.624 312.368 408.216C313.448 407.784 314.564 407.568 315.716 407.568C316.868 407.568 317.972 407.784 319.028 408.216C320.108 408.624 321.056 409.236 321.872 410.052C322.712 410.844 323.384 411.828 323.888 413.004C324.392 414.18 324.644 415.512 324.644 417C324.644 418.488 324.392 419.82 323.888 420.996C323.384 422.172 322.712 423.168 321.872 423.984C321.056 424.776 320.108 425.388 319.028 425.82C317.972 426.228 316.868 426.432 315.716 426.432ZM315.716 421.464C316.652 421.464 317.312 421.068 317.696 420.276C318.104 419.46 318.308 418.368 318.308 417C318.308 415.632 318.104 414.552 317.696 413.76C317.312 412.944 316.652 412.536 315.716 412.536C314.78 412.536 314.108 412.944 313.7 413.76C313.316 414.552 313.124 415.632 313.124 417C313.124 418.368 313.316 419.46 313.7 420.276C314.108 421.068 314.78 421.464 315.716 421.464ZM330.028 426V408H335.068L335.5 410.16H335.644C336.364 409.464 337.18 408.864 338.092 408.36C339.028 407.832 340.108 407.568 341.332 407.568C343.3 407.568 344.728 408.24 345.616 409.584C346.504 410.904 346.948 412.68 346.948 414.912V426H340.756V415.704C340.756 414.552 340.612 413.784 340.324 413.4C340.036 413.016 339.58 412.824 338.956 412.824C338.38 412.824 337.9 412.944 337.516 413.184C337.132 413.424 336.7 413.76 336.22 414.192V426H330.028Z" fill="#4A503D"/>
<path d="M156.759 458.492C156.796 457.699 156.866 456.976 156.969 456.322C157.072 455.66 157.216 455.03 157.403 454.432C157.599 453.835 157.846 453.256 158.145 452.696C158.444 452.127 158.808 451.544 159.237 450.946H155.023V449.588H161.001V450.568C160.478 451.212 160.054 451.828 159.727 452.416C159.41 452.995 159.158 453.592 158.971 454.208C158.784 454.815 158.649 455.464 158.565 456.154C158.49 456.845 158.434 457.624 158.397 458.492H156.759ZM166.949 458.492V449.336H169.399C170.799 449.336 171.891 449.714 172.675 450.47C173.459 451.226 173.851 452.36 173.851 453.872C173.851 454.628 173.749 455.296 173.543 455.874C173.347 456.453 173.058 456.938 172.675 457.33C172.302 457.713 171.845 458.002 171.303 458.198C170.771 458.394 170.165 458.492 169.483 458.492H166.949ZM168.573 457.176H169.287C170.221 457.176 170.935 456.91 171.429 456.378C171.933 455.837 172.185 455.002 172.185 453.872C172.185 452.752 171.933 451.936 171.429 451.422C170.925 450.909 170.211 450.652 169.287 450.652H168.573V457.176ZM178.139 453.62L177.817 454.74H180.155L179.833 453.62C179.683 453.135 179.539 452.636 179.399 452.122C179.268 451.609 179.137 451.1 179.007 450.596H178.951C178.82 451.11 178.689 451.623 178.559 452.136C178.428 452.64 178.288 453.135 178.139 453.62ZM175.073 458.492L178.055 449.336H179.959L182.941 458.492H181.233L180.519 456.014H177.439L176.725 458.492H175.073ZM186.077 458.492V455.09L183.333 449.336H185.069L186.063 451.674C186.193 452.02 186.324 452.356 186.455 452.682C186.585 453 186.725 453.336 186.875 453.69H186.931C187.08 453.336 187.225 453 187.365 452.682C187.505 452.356 187.64 452.02 187.771 451.674L188.765 449.336H190.459L187.701 455.09V458.492H186.077ZM194.692 458.66C194.076 458.66 193.479 458.544 192.9 458.31C192.331 458.077 191.827 457.746 191.388 457.316L192.34 456.21C192.667 456.518 193.04 456.77 193.46 456.966C193.88 457.153 194.3 457.246 194.72 457.246C195.243 457.246 195.639 457.139 195.91 456.924C196.181 456.71 196.316 456.425 196.316 456.07C196.316 455.884 196.279 455.725 196.204 455.594C196.139 455.464 196.041 455.352 195.91 455.258C195.789 455.156 195.639 455.062 195.462 454.978C195.294 454.894 195.107 454.81 194.902 454.726L193.642 454.18C193.418 454.087 193.194 453.97 192.97 453.83C192.755 453.69 192.559 453.522 192.382 453.326C192.205 453.13 192.06 452.902 191.948 452.64C191.845 452.379 191.794 452.08 191.794 451.744C191.794 451.38 191.869 451.044 192.018 450.736C192.177 450.419 192.391 450.144 192.662 449.91C192.933 449.677 193.255 449.495 193.628 449.364C194.011 449.234 194.426 449.168 194.874 449.168C195.406 449.168 195.919 449.276 196.414 449.49C196.909 449.696 197.333 449.976 197.688 450.33L196.862 451.366C196.563 451.124 196.255 450.932 195.938 450.792C195.621 450.652 195.266 450.582 194.874 450.582C194.435 450.582 194.085 450.68 193.824 450.876C193.563 451.063 193.432 451.324 193.432 451.66C193.432 451.838 193.469 451.992 193.544 452.122C193.628 452.244 193.735 452.356 193.866 452.458C194.006 452.552 194.165 452.64 194.342 452.724C194.519 452.799 194.701 452.874 194.888 452.948L196.134 453.466C196.405 453.578 196.652 453.709 196.876 453.858C197.1 454.008 197.291 454.18 197.45 454.376C197.618 454.572 197.749 454.801 197.842 455.062C197.935 455.314 197.982 455.608 197.982 455.944C197.982 456.318 197.907 456.668 197.758 456.994C197.609 457.321 197.389 457.61 197.1 457.862C196.82 458.105 196.475 458.301 196.064 458.45C195.663 458.59 195.205 458.66 194.692 458.66ZM207.406 458.66C206.808 458.66 206.262 458.553 205.768 458.338C205.273 458.114 204.848 457.797 204.494 457.386C204.139 456.966 203.864 456.462 203.668 455.874C203.472 455.286 203.374 454.619 203.374 453.872C203.374 453.135 203.472 452.477 203.668 451.898C203.864 451.31 204.139 450.816 204.494 450.414C204.848 450.013 205.273 449.705 205.768 449.49C206.262 449.276 206.808 449.168 207.406 449.168C208.003 449.168 208.549 449.276 209.044 449.49C209.538 449.705 209.963 450.013 210.318 450.414C210.682 450.816 210.962 451.31 211.158 451.898C211.354 452.477 211.452 453.135 211.452 453.872C211.452 454.619 211.354 455.286 211.158 455.874C210.962 456.462 210.682 456.966 210.318 457.386C209.963 457.797 209.538 458.114 209.044 458.338C208.549 458.553 208.003 458.66 207.406 458.66ZM207.406 457.246C207.77 457.246 208.096 457.167 208.386 457.008C208.675 456.85 208.922 456.626 209.128 456.336C209.333 456.038 209.492 455.683 209.604 455.272C209.716 454.852 209.772 454.386 209.772 453.872C209.772 452.846 209.557 452.043 209.128 451.464C208.708 450.876 208.134 450.582 207.406 450.582C206.678 450.582 206.099 450.876 205.67 451.464C205.25 452.043 205.04 452.846 205.04 453.872C205.04 454.386 205.096 454.852 205.208 455.272C205.32 455.683 205.478 456.038 205.684 456.336C205.889 456.626 206.136 456.85 206.426 457.008C206.715 457.167 207.042 457.246 207.406 457.246ZM213.983 458.492V449.336H219.513V450.708H215.607V453.298H218.939V454.67H215.607V458.492H213.983ZM228.977 458.66C228.398 458.66 227.857 458.558 227.353 458.352C226.849 458.147 226.41 457.844 226.037 457.442C225.673 457.041 225.384 456.546 225.169 455.958C224.954 455.37 224.847 454.698 224.847 453.942C224.847 453.196 224.954 452.528 225.169 451.94C225.393 451.343 225.692 450.839 226.065 450.428C226.448 450.018 226.891 449.705 227.395 449.49C227.908 449.276 228.454 449.168 229.033 449.168C229.612 449.168 230.125 449.285 230.573 449.518C231.021 449.752 231.39 450.022 231.679 450.33L230.811 451.38C230.568 451.138 230.307 450.946 230.027 450.806C229.747 450.657 229.43 450.582 229.075 450.582C228.702 450.582 228.356 450.662 228.039 450.82C227.731 450.97 227.46 451.189 227.227 451.478C227.003 451.758 226.826 452.104 226.695 452.514C226.574 452.925 226.513 453.387 226.513 453.9C226.513 454.946 226.737 455.767 227.185 456.364C227.642 456.952 228.258 457.246 229.033 457.246C229.444 457.246 229.808 457.162 230.125 456.994C230.442 456.817 230.732 456.588 230.993 456.308L231.861 457.33C231.488 457.76 231.058 458.091 230.573 458.324C230.097 458.548 229.565 458.66 228.977 458.66ZM235.965 453.62L235.643 454.74H237.981L237.659 453.62C237.51 453.135 237.365 452.636 237.225 452.122C237.095 451.609 236.964 451.1 236.833 450.596H236.777C236.647 451.11 236.516 451.623 236.385 452.136C236.255 452.64 236.115 453.135 235.965 453.62ZM232.899 458.492L235.881 449.336H237.785L240.767 458.492H239.059L238.345 456.014H235.265L234.551 458.492H232.899ZM242.596 458.492V449.336H244.22V457.12H248.028V458.492H242.596ZM250.323 458.492V449.336H252.157L253.781 453.816C253.884 454.106 253.982 454.404 254.075 454.712C254.169 455.011 254.267 455.31 254.369 455.608H254.425C254.528 455.31 254.621 455.011 254.705 454.712C254.799 454.404 254.897 454.106 254.999 453.816L256.581 449.336H258.429V458.492H256.931V454.306C256.931 454.092 256.936 453.858 256.945 453.606C256.964 453.354 256.983 453.102 257.001 452.85C257.02 452.589 257.043 452.337 257.071 452.094C257.099 451.842 257.123 451.609 257.141 451.394H257.085L256.343 453.522L254.845 457.638H253.879L252.367 453.522L251.639 451.394H251.583C251.602 451.609 251.621 451.842 251.639 452.094C251.667 452.337 251.691 452.589 251.709 452.85C251.737 453.102 251.756 453.354 251.765 453.606C251.784 453.858 251.793 454.092 251.793 454.306V458.492H250.323Z" fill="#A0A3B1"/>
</g>
<defs>
<clipPath id="clip0_1_3978">
<rect width="414" height="896" fill="white"/>
</clipPath>
</defs>
</svg>
