<svg width="414" height="896" viewBox="0 0 414 896" fill="none" xmlns="http://www.w3.org/2000/svg">
<g clip-path="url(#clip0_4_149)">
<rect width="414" height="896" fill="#FAF2DA"/>
<path opacity="0.2" d="M58.3349 415.944C68.6431 349.555 29.8673 284.707 -33.5116 262.349C-40.5247 259.874 -44.4911 252.46 -42.6742 245.248L-35.2684 215.826C-33.2125 207.667 -24.6416 203.021 -16.6589 205.696C3.69091 212.517 22.6274 222.492 39.7942 235.454C60.3612 250.983 77.5208 270.111 90.7977 292.312C104.075 314.514 112.804 338.68 116.746 364.139C120.035 385.394 119.863 406.785 116.235 427.934C114.812 436.227 106.659 441.576 98.4959 439.523L69.0637 432.113C61.8496 430.295 57.1921 423.289 58.3349 415.944Z" fill="#FEFCF8"/>
<path opacity="0.2" d="M357.426 416.772C349.596 483.499 390.759 546.858 454.926 566.842C462.027 569.054 466.266 576.315 464.719 583.59L458.414 613.267C456.663 621.497 448.271 626.459 440.194 624.083C419.604 618.024 400.31 608.761 382.672 596.447C361.542 581.694 343.682 563.219 329.588 541.527C315.494 519.835 305.871 496.01 300.984 470.715C296.906 449.597 296.282 428.215 299.12 406.946C300.233 398.606 308.181 392.957 316.416 394.704L346.103 401.014C353.38 402.562 358.295 409.39 357.426 416.772Z" fill="#FEFCF8"/>
<path opacity="0.5" d="M49.2839 900.224C51.0139 906.454 55.8039 930.284 59.6039 959.594C62.7239 983.754 43.9638 1005.17 19.6138 1005.17L5.71385 1005.17C-16.6261 1005.17 -34.7162 987.014 -34.6162 964.674C-34.1162 850.994 -30.8561 678.084 -20.4261 663.434C-11.7061 651.194 -2.07611 626.164 4.46389 606.734C12.2439 583.644 25.8439 562.884 44.2239 546.894C44.7739 546.414 45.3239 545.944 45.8639 545.494C57.5039 535.694 71.6239 529.274 86.6139 526.674C206.674 505.874 237.274 590.814 237.374 639.044C237.374 639.904 237.404 640.764 237.454 641.624C238.864 669.244 219.464 729.054 129.834 757.654C38.7739 786.694 38.1839 864.804 49.2839 900.224Z" fill="#FEFCF8"/>
<path opacity="0.5" d="M343.1 75.2207C341.37 68.9907 336.58 45.1608 332.78 15.8508C329.66 -8.30925 348.42 -29.7292 372.77 -29.7292H386.67C409.01 -29.7292 427.1 -11.5692 427 10.7708C426.5 124.451 423.24 297.361 412.81 312.011C404.09 324.251 394.46 349.281 387.92 368.711C380.14 391.801 366.54 412.561 348.16 428.551C347.61 429.031 347.06 429.501 346.52 429.951C334.88 439.751 320.76 446.171 305.77 448.771C185.71 469.571 155.11 384.631 155.01 336.401C155.01 335.541 154.98 334.681 154.93 333.821C153.52 306.201 172.92 246.391 262.55 217.791C353.61 188.751 354.2 110.641 343.1 75.2207Z" fill="#FEFCF8"/>
<circle opacity="0.5" cx="80.0667" cy="75.2242" r="104.953" fill="#FEFCF8"/>
<circle opacity="0.5" cx="367.629" cy="799.6" r="104.953" transform="rotate(70.9462 367.629 799.6)" fill="#FEFCF8"/>
</g>
<defs>
<clipPath id="clip0_4_149">
<rect width="414" height="896" fill="white"/>
</clipPath>
</defs>
</svg>
