<svg width="22" height="22" viewBox="0 0 22 22" fill="none" xmlns="http://www.w3.org/2000/svg">
<path d="M20.3204 7.50594L12.7282 0.819133C11.6436 -0.265457 9.87783 -0.265456 8.83806 0.774315L1.1563 7.55076C0.412323 8.29473 0 9.28969 0 10.3474V19.302C0 20.7899 1.21008 22 2.69803 22H18.8324C20.3114 22 21.5215 20.7899 21.5215 19.302V10.3474C21.5215 9.28969 21.1092 8.29473 20.3204 7.50594ZM19.7288 19.302C19.7288 19.8039 19.3254 20.2073 18.8324 20.2073H13.1495V14.4348C13.1495 13.9149 12.7372 13.5026 12.2173 13.5026H9.30416C8.79324 13.5026 8.37195 13.9149 8.37195 14.4348V20.2073H2.69803C2.19607 20.2073 1.79271 19.8039 1.79271 19.302V10.3474C1.79271 9.78268 2.02576 9.21798 2.3843 8.85047L10.0661 2.08299C10.2543 1.89476 10.4963 1.79616 10.7473 1.79616C11.0162 1.79616 11.2851 1.90372 11.5002 2.11885L19.0924 8.81462C19.5047 9.22694 19.7288 9.77372 19.7288 10.3474V19.302Z" fill="#A1A4B2"/>
</svg>
