<svg width="18" height="22" viewBox="0 0 18 22" fill="none" xmlns="http://www.w3.org/2000/svg">
<path d="M8.21732 22.0002C7.66345 22.0002 2.83303 21.9366 0.853642 19.6031C0.145422 18.7678 -0.12697 17.7236 0.0546246 16.5886L0.0727841 16.4887C0.0909436 16.407 0.100023 16.3344 0.118183 16.2618L0.454134 14.9361C0.744685 13.9283 1.04432 13.0748 1.38027 12.2757C1.75254 11.4041 2.23376 10.5688 2.89659 9.6517C3.75008 8.46225 4.77609 7.11845 6.15621 6.29219C6.61928 6.0198 7.34566 5.70201 8.19916 5.75649C9.06173 5.70201 9.77903 6.01072 10.2421 6.29219C11.5677 7.08213 12.5938 8.37145 13.5108 9.6517C14.1646 10.5688 14.6458 11.4041 15.0271 12.2757C15.4448 13.2382 15.7989 14.3005 16.1076 15.5081L16.2983 16.2618C16.5798 17.4784 16.3618 18.5952 15.6445 19.4941C13.7287 21.9366 8.78026 22.0002 8.21732 22.0002ZM2.11573 15.7714L1.86149 16.8156C1.75254 17.5057 1.87057 18.0051 2.24284 18.4318C3.46861 19.8755 6.97339 20.1933 8.21732 20.1933H8.2264C9.49756 20.1933 13.0659 19.8664 14.2463 18.3773C14.6185 17.9143 14.7093 17.3695 14.5459 16.6794L14.3734 15.9712C14.0828 14.8544 13.756 13.8829 13.3837 13.0021C13.0568 12.2485 12.6392 11.5221 12.058 10.7049C11.3135 9.66078 10.4328 8.49857 9.34321 7.85391C8.98002 7.64507 8.61683 7.5452 8.29904 7.57244L8.21732 7.58152L8.12652 7.57244C7.81781 7.5452 7.44554 7.64507 7.10051 7.85391C6.02002 8.49857 5.1302 9.66078 4.38566 10.7049C3.80456 11.5221 3.38689 12.2485 3.06002 13.0021C2.75131 13.7194 2.47892 14.5003 2.22468 15.3901L2.11573 15.7714Z" fill="#A0A3B1"/>
<path d="M14.5096 6.98233C12.5847 6.98233 11.0229 5.42061 11.0229 3.4957C11.0229 1.5708 12.5847 0 14.5096 0C16.4345 0 17.9962 1.56172 17.9962 3.48662C17.9962 5.41153 16.4345 6.98233 14.5096 6.98233ZM14.5096 1.81595C13.5834 1.81595 12.8389 2.56957 12.8389 3.48662C12.8389 4.40368 13.5925 5.1573 14.5096 5.1573C15.4266 5.1573 16.1802 4.40368 16.1802 3.48662C16.1802 2.56957 15.4266 1.81595 14.5096 1.81595Z" fill="#A0A3B1"/>
</svg>
