<svg width="46" height="67" viewBox="0 0 46 67" fill="none" xmlns="http://www.w3.org/2000/svg">
<path d="M3.08737 66V55.536H5.18337L7.03937 60.656C7.15671 60.9867 7.26871 61.328 7.37537 61.68C7.48204 62.0213 7.59404 62.3627 7.71137 62.704H7.77537C7.89271 62.3627 7.99938 62.0213 8.09538 61.68C8.20204 61.328 8.31404 60.9867 8.43138 60.656L10.2394 55.536H12.3514V66H10.6394V61.216C10.6394 60.9707 10.6447 60.704 10.6554 60.416C10.6767 60.128 10.698 59.84 10.7194 59.552C10.7407 59.2533 10.7674 58.9653 10.7994 58.688C10.8314 58.4 10.858 58.1333 10.8794 57.888H10.8154L9.96737 60.32L8.25537 65.024H7.15137L5.42337 60.32L4.59137 57.888H4.52737C4.54871 58.1333 4.57004 58.4 4.59137 58.688C4.62337 58.9653 4.65004 59.2533 4.67137 59.552C4.70337 59.84 4.72471 60.128 4.73537 60.416C4.75671 60.704 4.76737 60.9707 4.76737 61.216V66H3.08737ZM17.9852 66.192C17.1426 66.192 16.5292 65.9253 16.1452 65.392C15.7612 64.848 15.5692 64.0747 15.5692 63.072V58.144H17.4093V62.832C17.4093 63.4827 17.5052 63.9413 17.6972 64.208C17.8892 64.4747 18.1986 64.608 18.6252 64.608C18.9666 64.608 19.2653 64.5227 19.5213 64.352C19.7879 64.1813 20.0706 63.904 20.3693 63.52V58.144H22.2092V66H20.7053L20.5613 64.848H20.5132C20.1719 65.2533 19.7986 65.5787 19.3932 65.824C18.9986 66.0693 18.5292 66.192 17.9852 66.192ZM27.5319 66.192C26.9879 66.192 26.4492 66.0907 25.9159 65.888C25.3932 65.6747 24.9399 65.4133 24.5559 65.104L25.4199 63.92C25.7719 64.1973 26.1185 64.416 26.4599 64.576C26.8119 64.7253 27.1905 64.8 27.5959 64.8C28.0225 64.8 28.3372 64.7147 28.5399 64.544C28.7425 64.3627 28.8439 64.1333 28.8439 63.856C28.8439 63.696 28.7959 63.5573 28.6999 63.44C28.6039 63.312 28.4759 63.2 28.3159 63.104C28.1559 63.008 27.9745 62.9227 27.7719 62.848C27.5692 62.7627 27.3665 62.6773 27.1639 62.592C26.9079 62.496 26.6465 62.384 26.3799 62.256C26.1132 62.128 25.8732 61.9733 25.6599 61.792C25.4572 61.6107 25.2865 61.4027 25.1479 61.168C25.0199 60.9227 24.9559 60.6347 24.9559 60.304C24.9559 59.6107 25.2119 59.0453 25.7239 58.608C26.2359 58.1707 26.9345 57.952 27.8199 57.952C28.3639 57.952 28.8545 58.048 29.2919 58.24C29.7292 58.432 30.1079 58.6507 30.4279 58.896L29.5799 60.016C29.3025 59.8133 29.0199 59.6533 28.7319 59.536C28.4545 59.408 28.1612 59.344 27.8519 59.344C27.4572 59.344 27.1639 59.4293 26.9719 59.6C26.7905 59.76 26.6999 59.9627 26.6999 60.208C26.6999 60.368 26.7425 60.5067 26.8279 60.624C26.9239 60.7307 27.0465 60.8267 27.1959 60.912C27.3452 60.9973 27.5159 61.0773 27.7079 61.152C27.9105 61.2267 28.1185 61.3013 28.3319 61.376C28.5985 61.472 28.8652 61.584 29.1319 61.712C29.3985 61.8293 29.6385 61.9787 29.8519 62.16C30.0759 62.3413 30.2519 62.5653 30.3799 62.832C30.5185 63.088 30.5879 63.3973 30.5879 63.76C30.5879 64.1013 30.5185 64.4213 30.3799 64.72C30.2519 65.008 30.0599 65.264 29.8039 65.488C29.5479 65.7013 29.2279 65.872 28.8439 66C28.4599 66.128 28.0225 66.192 27.5319 66.192ZM33.0305 66V58.144H34.8705V66H33.0305ZM33.9585 56.768C33.6278 56.768 33.3558 56.672 33.1425 56.48C32.9292 56.288 32.8225 56.0373 32.8225 55.728C32.8225 55.4187 32.9292 55.168 33.1425 54.976C33.3558 54.7733 33.6278 54.672 33.9585 54.672C34.2892 54.672 34.5612 54.7733 34.7745 54.976C34.9878 55.168 35.0945 55.4187 35.0945 55.728C35.0945 56.0373 34.9878 56.288 34.7745 56.48C34.5612 56.672 34.2892 56.768 33.9585 56.768ZM41.298 66.192C40.7647 66.192 40.2633 66.1013 39.794 65.92C39.3353 65.7387 38.9353 65.472 38.594 65.12C38.2527 64.768 37.986 64.336 37.794 63.824C37.602 63.312 37.506 62.7307 37.506 62.08C37.506 61.4293 37.6127 60.848 37.826 60.336C38.0393 59.824 38.3273 59.392 38.69 59.04C39.0527 58.688 39.4687 58.4213 39.938 58.24C40.418 58.048 40.9193 57.952 41.442 57.952C41.954 57.952 42.3913 58.0373 42.754 58.208C43.1273 58.3787 43.458 58.5867 43.746 58.832L42.85 60.032C42.6367 59.8507 42.4233 59.712 42.21 59.616C42.0073 59.5093 41.7833 59.456 41.538 59.456C40.898 59.456 40.3807 59.696 39.986 60.176C39.5913 60.6453 39.394 61.28 39.394 62.08C39.394 62.8693 39.586 63.504 39.97 63.984C40.3647 64.4533 40.8713 64.688 41.49 64.688C41.7993 64.688 42.0873 64.624 42.354 64.496C42.6313 64.3573 42.882 64.1973 43.106 64.016L43.858 65.232C43.4847 65.552 43.074 65.792 42.626 65.952C42.1887 66.112 41.746 66.192 41.298 66.192Z" fill="#E28F83"/>
<rect width="46" height="46" rx="18" fill="#E28F83"/>
<path d="M19.9638 22.4887C19.8643 22.4706 19.7647 22.4616 19.6652 22.4616H15.5204C12.4796 22.4616 10 24.9322 10 27.9819V28.4797C10 31.5204 12.4796 34 15.5204 34H16.2534C18.2986 34 20.0996 32.8779 21.0407 31.2037C21.5113 30.3982 21.7738 29.4752 21.7738 28.4797V24.5611C21.7738 23.5023 20.9774 22.6245 19.9638 22.4887ZM19.9638 28.4797C19.9638 30.5249 18.2986 32.1901 16.2534 32.1901H15.5204C13.4751 32.1901 11.81 30.5249 11.81 28.4797V27.9819C11.81 25.9367 13.4751 24.2715 15.5204 24.2715H19.6652C19.8281 24.2715 19.9638 24.3982 19.9638 24.5611V28.4797Z" fill="#FAF2DA"/>
<path d="M30.9052 12.0362H30.3079V12H25.593C22.4889 12 19.964 14.5249 19.964 17.629V27.9004C19.964 29.1403 20.3622 30.2805 21.0409 31.2036C21.5115 30.3982 21.774 29.4751 21.774 28.4796V17.629C21.774 15.5204 23.4844 13.81 25.593 13.81H29.8554V13.819H30.9052C32.6518 13.819 34.0726 15.2398 34.0726 16.9864V21.1403C34.0274 21.1312 33.9731 21.1312 33.9278 21.1312H30.3713C27.7649 21.1312 25.6292 23.2489 25.6292 25.8643V26.2896C25.6292 28.8959 27.7649 31.0317 30.3713 31.0317H30.9957C32.7514 31.0317 34.2988 30.0633 35.1043 28.6244C35.3758 28.1629 35.5749 27.6561 35.6654 27.1041C35.783 26.6787 35.8464 26.2443 35.8464 25.7919V16.9864C35.8464 14.2534 33.6292 12.0362 30.9052 12.0362ZM34.1812 26.2896C34.1812 26.5158 34.154 26.733 34.1179 26.9502C33.8102 28.3891 32.5251 29.4751 30.9957 29.4751H30.3713C28.6156 29.4751 27.1857 28.0452 27.1857 26.2896V25.8643C27.1857 24.1086 28.6156 22.6787 30.3713 22.6787H33.9278C33.9821 22.6787 34.0274 22.6968 34.0726 22.724C34.136 22.7692 34.1812 22.8416 34.1812 22.9321V26.2896Z" fill="#FAF2DA"/>
</svg>
