<svg width="46" height="55" viewBox="0 0 46 55" fill="none" xmlns="http://www.w3.org/2000/svg">
<path d="M3.08737 54V43.536H5.18337L7.03937 48.656C7.15671 48.9867 7.26871 49.328 7.37537 49.68C7.48204 50.0213 7.59404 50.3627 7.71137 50.704H7.77537C7.89271 50.3627 7.99938 50.0213 8.09538 49.68C8.20204 49.328 8.31404 48.9867 8.43138 48.656L10.2394 43.536H12.3514V54H10.6394V49.216C10.6394 48.9707 10.6447 48.704 10.6554 48.416C10.6767 48.128 10.698 47.84 10.7194 47.552C10.7407 47.2533 10.7674 46.9653 10.7994 46.688C10.8314 46.4 10.858 46.1333 10.8794 45.888H10.8154L9.96737 48.32L8.25537 53.024H7.15137L5.42337 48.32L4.59137 45.888H4.52737C4.54871 46.1333 4.57004 46.4 4.59137 46.688C4.62337 46.9653 4.65004 47.2533 4.67137 47.552C4.70337 47.84 4.72471 48.128 4.73537 48.416C4.75671 48.704 4.76737 48.9707 4.76737 49.216V54H3.08737ZM17.9852 54.192C17.1426 54.192 16.5292 53.9253 16.1452 53.392C15.7612 52.848 15.5692 52.0747 15.5692 51.072V46.144H17.4093V50.832C17.4093 51.4827 17.5052 51.9413 17.6972 52.208C17.8892 52.4747 18.1986 52.608 18.6252 52.608C18.9666 52.608 19.2653 52.5227 19.5213 52.352C19.7879 52.1813 20.0706 51.904 20.3693 51.52V46.144H22.2092V54H20.7053L20.5613 52.848H20.5132C20.1719 53.2533 19.7986 53.5787 19.3932 53.824C18.9986 54.0693 18.5292 54.192 17.9852 54.192ZM27.5319 54.192C26.9879 54.192 26.4492 54.0907 25.9159 53.888C25.3932 53.6747 24.9399 53.4133 24.5559 53.104L25.4199 51.92C25.7719 52.1973 26.1185 52.416 26.4599 52.576C26.8119 52.7253 27.1905 52.8 27.5959 52.8C28.0225 52.8 28.3372 52.7147 28.5399 52.544C28.7425 52.3627 28.8439 52.1333 28.8439 51.856C28.8439 51.696 28.7959 51.5573 28.6999 51.44C28.6039 51.312 28.4759 51.2 28.3159 51.104C28.1559 51.008 27.9745 50.9227 27.7719 50.848C27.5692 50.7627 27.3665 50.6773 27.1639 50.592C26.9079 50.496 26.6465 50.384 26.3799 50.256C26.1132 50.128 25.8732 49.9733 25.6599 49.792C25.4572 49.6107 25.2865 49.4027 25.1479 49.168C25.0199 48.9227 24.9559 48.6347 24.9559 48.304C24.9559 47.6107 25.2119 47.0453 25.7239 46.608C26.2359 46.1707 26.9345 45.952 27.8199 45.952C28.3639 45.952 28.8545 46.048 29.2919 46.24C29.7292 46.432 30.1079 46.6507 30.4279 46.896L29.5799 48.016C29.3025 47.8133 29.0199 47.6533 28.7319 47.536C28.4545 47.408 28.1612 47.344 27.8519 47.344C27.4572 47.344 27.1639 47.4293 26.9719 47.6C26.7905 47.76 26.6999 47.9627 26.6999 48.208C26.6999 48.368 26.7425 48.5067 26.8279 48.624C26.9239 48.7307 27.0465 48.8267 27.1959 48.912C27.3452 48.9973 27.5159 49.0773 27.7079 49.152C27.9105 49.2267 28.1185 49.3013 28.3319 49.376C28.5985 49.472 28.8652 49.584 29.1319 49.712C29.3985 49.8293 29.6385 49.9787 29.8519 50.16C30.0759 50.3413 30.2519 50.5653 30.3799 50.832C30.5185 51.088 30.5879 51.3973 30.5879 51.76C30.5879 52.1013 30.5185 52.4213 30.3799 52.72C30.2519 53.008 30.0599 53.264 29.8039 53.488C29.5479 53.7013 29.2279 53.872 28.8439 54C28.4599 54.128 28.0225 54.192 27.5319 54.192ZM33.0305 54V46.144H34.8705V54H33.0305ZM33.9585 44.768C33.6278 44.768 33.3558 44.672 33.1425 44.48C32.9292 44.288 32.8225 44.0373 32.8225 43.728C32.8225 43.4187 32.9292 43.168 33.1425 42.976C33.3558 42.7733 33.6278 42.672 33.9585 42.672C34.2892 42.672 34.5612 42.7733 34.7745 42.976C34.9878 43.168 35.0945 43.4187 35.0945 43.728C35.0945 44.0373 34.9878 44.288 34.7745 44.48C34.5612 44.672 34.2892 44.768 33.9585 44.768ZM41.298 54.192C40.7647 54.192 40.2633 54.1013 39.794 53.92C39.3353 53.7387 38.9353 53.472 38.594 53.12C38.2527 52.768 37.986 52.336 37.794 51.824C37.602 51.312 37.506 50.7307 37.506 50.08C37.506 49.4293 37.6127 48.848 37.826 48.336C38.0393 47.824 38.3273 47.392 38.69 47.04C39.0527 46.688 39.4687 46.4213 39.938 46.24C40.418 46.048 40.9193 45.952 41.442 45.952C41.954 45.952 42.3913 46.0373 42.754 46.208C43.1273 46.3787 43.458 46.5867 43.746 46.832L42.85 48.032C42.6367 47.8507 42.4233 47.712 42.21 47.616C42.0073 47.5093 41.7833 47.456 41.538 47.456C40.898 47.456 40.3807 47.696 39.986 48.176C39.5913 48.6453 39.394 49.28 39.394 50.08C39.394 50.8693 39.586 51.504 39.97 51.984C40.3647 52.4533 40.8713 52.688 41.49 52.688C41.7993 52.688 42.0873 52.624 42.354 52.496C42.6313 52.3573 42.882 52.1973 43.106 52.016L43.858 53.232C43.4847 53.552 43.074 53.792 42.626 53.952C42.1887 54.112 41.746 54.192 41.298 54.192Z" fill="#A1A4B2"/>
<path d="M19.9638 10.4887C19.8643 10.4706 19.7647 10.4616 19.6652 10.4616H15.5204C12.4796 10.4616 10 12.9322 10 15.9819V16.4797C10 19.5204 12.4796 22 15.5204 22H16.2534C18.2986 22 20.0996 20.8779 21.0407 19.2037C21.5113 18.3982 21.7738 17.4752 21.7738 16.4797V12.5611C21.7738 11.5023 20.9774 10.6245 19.9638 10.4887ZM19.9638 16.4797C19.9638 18.5249 18.2986 20.1901 16.2534 20.1901H15.5204C13.4751 20.1901 11.81 18.5249 11.81 16.4797V15.9819C11.81 13.9367 13.4751 12.2715 15.5204 12.2715H19.6652C19.8281 12.2715 19.9638 12.3982 19.9638 12.5611V16.4797Z" fill="#A0A3B1"/>
<path d="M30.9052 0.0361991H30.3079V0H25.593C22.4889 0 19.964 2.52489 19.964 5.62896V15.9004C19.964 17.1403 20.3622 18.2805 21.0409 19.2036C21.5115 18.3982 21.774 17.4751 21.774 16.4796V5.62896C21.774 3.52036 23.4844 1.80995 25.593 1.80995H29.8554V1.819H30.9052C32.6518 1.819 34.0726 3.23982 34.0726 4.98642V9.14027C34.0274 9.13122 33.9731 9.13122 33.9278 9.13122H30.3713C27.7649 9.13122 25.6292 11.2489 25.6292 13.8643V14.2896C25.6292 16.8959 27.7649 19.0317 30.3713 19.0317H30.9957C32.7514 19.0317 34.2988 18.0633 35.1043 16.6244C35.3758 16.1629 35.5749 15.6561 35.6654 15.1041C35.783 14.6787 35.8464 14.2443 35.8464 13.7919V4.98642C35.8464 2.25339 33.6292 0.0361991 30.9052 0.0361991ZM34.1812 14.2896C34.1812 14.5158 34.154 14.733 34.1179 14.9502C33.8102 16.3891 32.5251 17.4751 30.9957 17.4751H30.3713C28.6156 17.4751 27.1857 16.0452 27.1857 14.2896V13.8643C27.1857 12.1086 28.6156 10.6787 30.3713 10.6787H33.9278C33.9821 10.6787 34.0274 10.6968 34.0726 10.724C34.136 10.7692 34.1812 10.8416 34.1812 10.9321V14.2896Z" fill="#A0A3B1"/>
</svg>
