<svg width="65" height="67" viewBox="0 0 65 67" fill="none" xmlns="http://www.w3.org/2000/svg">
<path d="M0.363938 66V55.536H2.45994L4.31594 60.656C4.43327 60.9867 4.54527 61.328 4.65194 61.68C4.75861 62.0213 4.87061 62.3627 4.98794 62.704H5.05194C5.16927 62.3627 5.27594 62.0213 5.37194 61.68C5.47861 61.328 5.59061 60.9867 5.70794 60.656L7.51594 55.536H9.62794V66H7.91594V61.216C7.91594 60.9707 7.92127 60.704 7.93194 60.416C7.95327 60.128 7.97461 59.84 7.99594 59.552C8.01727 59.2533 8.04394 58.9653 8.07594 58.688C8.10794 58.4 8.13461 58.1333 8.15594 57.888H8.09194L7.24394 60.32L5.53194 65.024H4.42794L2.69994 60.32L1.86794 57.888H1.80394C1.82527 58.1333 1.84661 58.4 1.86794 58.688C1.89994 58.9653 1.92661 59.2533 1.94794 59.552C1.97994 59.84 2.00127 60.128 2.01194 60.416C2.03327 60.704 2.04394 60.9707 2.04394 61.216V66H0.363938ZM16.2858 66.192C15.7418 66.192 15.2351 66.1013 14.7658 65.92C14.2965 65.728 13.8858 65.456 13.5338 65.104C13.1818 64.752 12.9045 64.3253 12.7018 63.824C12.5098 63.312 12.4138 62.7307 12.4138 62.08C12.4138 61.44 12.5151 60.864 12.7178 60.352C12.9205 59.84 13.1871 59.408 13.5178 59.056C13.8591 58.704 14.2485 58.432 14.6858 58.24C15.1231 58.048 15.5711 57.952 16.0298 57.952C16.5631 57.952 17.0325 58.0427 17.4378 58.224C17.8431 58.4053 18.1791 58.6613 18.4458 58.992C18.7231 59.3227 18.9311 59.7173 19.0698 60.176C19.2085 60.6347 19.2778 61.136 19.2778 61.68C19.2778 61.8613 19.2671 62.032 19.2458 62.192C19.2351 62.352 19.2191 62.48 19.1978 62.576H14.2058C14.2911 63.28 14.5365 63.824 14.9418 64.208C15.3578 64.5813 15.8858 64.768 16.5258 64.768C16.8671 64.768 17.1818 64.72 17.4698 64.624C17.7685 64.5173 18.0618 64.3733 18.3498 64.192L18.9738 65.344C18.6005 65.5893 18.1845 65.792 17.7258 65.952C17.2671 66.112 16.7871 66.192 16.2858 66.192ZM14.1898 61.328H17.6778C17.6778 60.72 17.5445 60.2453 17.2778 59.904C17.0218 59.552 16.6218 59.376 16.0778 59.376C15.6085 59.376 15.1978 59.5413 14.8458 59.872C14.4938 60.2027 14.2751 60.688 14.1898 61.328ZM24.5872 66.192C23.5952 66.192 22.8059 65.8347 22.2192 65.12C21.6432 64.3947 21.3552 63.3813 21.3552 62.08C21.3552 61.44 21.4459 60.864 21.6272 60.352C21.8192 59.84 22.0699 59.408 22.3792 59.056C22.6885 58.704 23.0405 58.432 23.4352 58.24C23.8405 58.048 24.2565 57.952 24.6832 57.952C25.1312 57.952 25.5099 58.032 25.8192 58.192C26.1285 58.3413 26.4379 58.5493 26.7472 58.816L26.6832 57.552V54.704H28.5232V66H27.0032L26.8752 65.152H26.8112C26.5232 65.44 26.1872 65.6853 25.8032 65.888C25.4192 66.0907 25.0139 66.192 24.5872 66.192ZM25.0352 64.672C25.6219 64.672 26.1712 64.3787 26.6832 63.792V60.128C26.4059 59.8827 26.1339 59.712 25.8672 59.616C25.6112 59.52 25.3499 59.472 25.0832 59.472C24.5712 59.472 24.1392 59.696 23.7872 60.144C23.4352 60.592 23.2592 61.232 23.2592 62.064C23.2592 62.9173 23.4085 63.568 23.7072 64.016C24.0165 64.4533 24.4592 64.672 25.0352 64.672ZM31.6664 66V58.144H33.5064V66H31.6664ZM32.5944 56.768C32.2638 56.768 31.9918 56.672 31.7784 56.48C31.5651 56.288 31.4584 56.0373 31.4584 55.728C31.4584 55.4187 31.5651 55.168 31.7784 54.976C31.9918 54.7733 32.2638 54.672 32.5944 54.672C32.9251 54.672 33.1971 54.7733 33.4104 54.976C33.6238 55.168 33.7304 55.4187 33.7304 55.728C33.7304 56.0373 33.6238 56.288 33.4104 56.48C33.1971 56.672 32.9251 56.768 32.5944 56.768ZM39.4219 66.192C38.9633 66.192 38.5739 66.1227 38.2539 65.984C37.9446 65.8453 37.6886 65.6533 37.4859 65.408C37.2939 65.152 37.1499 64.8533 37.0539 64.512C36.9686 64.16 36.9259 63.7707 36.9259 63.344V59.6H35.8059V58.224L37.0219 58.144L37.2459 56H38.7819V58.144H40.7819V59.6H38.7819V63.344C38.7819 64.2613 39.1499 64.72 39.8859 64.72C40.0246 64.72 40.1633 64.704 40.3019 64.672C40.4513 64.64 40.5846 64.5973 40.7019 64.544L41.0219 65.904C40.8086 65.9787 40.5633 66.0427 40.2859 66.096C40.0193 66.16 39.7313 66.192 39.4219 66.192ZM44.7954 66.192C44.1021 66.192 43.5421 65.984 43.1154 65.568C42.6888 65.1413 42.4754 64.5813 42.4754 63.888C42.4754 63.472 42.5608 63.104 42.7314 62.784C42.9128 62.4533 43.1901 62.1707 43.5634 61.936C43.9474 61.7013 44.4274 61.504 45.0034 61.344C45.5901 61.184 46.2888 61.0613 47.0994 60.976C47.0888 60.7733 47.0568 60.5813 47.0034 60.4C46.9608 60.208 46.8808 60.0427 46.7634 59.904C46.6568 59.7547 46.5128 59.6427 46.3314 59.568C46.1501 59.4827 45.9261 59.44 45.6594 59.44C45.2754 59.44 44.8968 59.5147 44.5234 59.664C44.1608 59.8133 43.8034 59.9947 43.4514 60.208L42.7794 58.976C43.2168 58.6987 43.7074 58.4587 44.2514 58.256C44.7954 58.0533 45.3821 57.952 46.0114 57.952C46.9928 57.952 47.7234 58.2453 48.2034 58.832C48.6941 59.408 48.9394 60.2453 48.9394 61.344V66H47.4194L47.2914 65.136H47.2274C46.8754 65.4347 46.4968 65.6853 46.0914 65.888C45.6968 66.0907 45.2648 66.192 44.7954 66.192ZM45.3874 64.752C45.7074 64.752 45.9954 64.6773 46.2514 64.528C46.5181 64.3787 46.8008 64.1653 47.0994 63.888V62.128C46.5661 62.192 46.1181 62.2773 45.7554 62.384C45.3928 62.4907 45.0994 62.6133 44.8754 62.752C44.6514 62.88 44.4914 63.0293 44.3954 63.2C44.2994 63.3707 44.2514 63.552 44.2514 63.744C44.2514 64.096 44.3581 64.352 44.5714 64.512C44.7848 64.672 45.0568 64.752 45.3874 64.752ZM54.4594 66.192C54.0008 66.192 53.6114 66.1227 53.2914 65.984C52.9821 65.8453 52.7261 65.6533 52.5234 65.408C52.3314 65.152 52.1874 64.8533 52.0914 64.512C52.0061 64.16 51.9634 63.7707 51.9634 63.344V59.6H50.8434V58.224L52.0594 58.144L52.2834 56H53.8194V58.144H55.8194V59.6H53.8194V63.344C53.8194 64.2613 54.1874 64.72 54.9234 64.72C55.0621 64.72 55.2008 64.704 55.3394 64.672C55.4888 64.64 55.6221 64.5973 55.7394 64.544L56.0594 65.904C55.8461 65.9787 55.6008 66.0427 55.3234 66.096C55.0568 66.16 54.7688 66.192 54.4594 66.192ZM61.3827 66.192C60.8387 66.192 60.332 66.1013 59.8627 65.92C59.3934 65.728 58.9827 65.456 58.6307 65.104C58.2787 64.752 58.0014 64.3253 57.7987 63.824C57.6067 63.312 57.5107 62.7307 57.5107 62.08C57.5107 61.44 57.612 60.864 57.8147 60.352C58.0174 59.84 58.284 59.408 58.6147 59.056C58.956 58.704 59.3454 58.432 59.7827 58.24C60.22 58.048 60.668 57.952 61.1267 57.952C61.66 57.952 62.1294 58.0427 62.5347 58.224C62.94 58.4053 63.276 58.6613 63.5427 58.992C63.82 59.3227 64.028 59.7173 64.1667 60.176C64.3054 60.6347 64.3747 61.136 64.3747 61.68C64.3747 61.8613 64.364 62.032 64.3427 62.192C64.332 62.352 64.316 62.48 64.2947 62.576H59.3027C59.388 63.28 59.6334 63.824 60.0387 64.208C60.4547 64.5813 60.9827 64.768 61.6227 64.768C61.964 64.768 62.2787 64.72 62.5667 64.624C62.8654 64.5173 63.1587 64.3733 63.4467 64.192L64.0707 65.344C63.6974 65.5893 63.2814 65.792 62.8227 65.952C62.364 66.112 61.884 66.192 61.3827 66.192ZM59.2867 61.328H62.7747C62.7747 60.72 62.6414 60.2453 62.3747 59.904C62.1187 59.552 61.7187 59.376 61.1747 59.376C60.7054 59.376 60.2947 59.5413 59.9427 59.872C59.5907 60.2027 59.372 60.688 59.2867 61.328Z" fill="#E28F83"/>
<rect x="9" width="46" height="46" rx="18" fill="#E28F83"/>
<path d="M31.2173 34.0002C30.6635 34.0002 25.833 33.9366 23.8536 31.6031C23.1454 30.7678 22.873 29.7236 23.0546 28.5886L23.0728 28.4887C23.0909 28.407 23.1 28.3344 23.1182 28.2618L23.4541 26.9361C23.7447 25.9283 24.0443 25.0748 24.3803 24.2757C24.7525 23.4041 25.2338 22.5688 25.8966 21.6517C26.7501 20.4623 27.7761 19.1184 29.1562 18.2922C29.6193 18.0198 30.3457 17.702 31.1992 17.7565C32.0617 17.702 32.779 18.0107 33.2421 18.2922C34.5677 19.0821 35.5938 20.3715 36.5108 21.6517C37.1646 22.5688 37.6458 23.4041 38.0271 24.2757C38.4448 25.2382 38.7989 26.3005 39.1076 27.5081L39.2983 28.2618C39.5798 29.4784 39.3618 30.5952 38.6445 31.4941C36.7287 33.9366 31.7803 34.0002 31.2173 34.0002ZM25.1157 27.7714L24.8615 28.8156C24.7525 29.5057 24.8706 30.0051 25.2428 30.4318C26.4686 31.8755 29.9734 32.1933 31.2173 32.1933H31.2264C32.4976 32.1933 36.0659 31.8664 37.2463 30.3773C37.6185 29.9143 37.7093 29.3695 37.5459 28.6794L37.3734 27.9712C37.0828 26.8544 36.756 25.8829 36.3837 25.0021C36.0568 24.2485 35.6392 23.5221 35.058 22.7049C34.3135 21.6608 33.4328 20.4986 32.3432 19.8539C31.98 19.6451 31.6168 19.5452 31.299 19.5724L31.2173 19.5815L31.1265 19.5724C30.8178 19.5452 30.4455 19.6451 30.1005 19.8539C29.02 20.4986 28.1302 21.6608 27.3857 22.7049C26.8046 23.5221 26.3869 24.2485 26.06 25.0021C25.7513 25.7194 25.4789 26.5003 25.2247 27.3901L25.1157 27.7714Z" fill="#FAF2DA"/>
<path d="M37.5095 18.9823C35.5846 18.9823 34.0229 17.4206 34.0229 15.4957C34.0229 13.5708 35.5846 12 37.5095 12C39.4344 12 40.9962 13.5617 40.9962 15.4866C40.9962 17.4115 39.4344 18.9823 37.5095 18.9823ZM37.5095 13.8159C36.5834 13.8159 35.8389 14.5696 35.8389 15.4866C35.8389 16.4037 36.5925 17.1573 37.5095 17.1573C38.4266 17.1573 39.1802 16.4037 39.1802 15.4866C39.1802 14.5696 38.4266 13.8159 37.5095 13.8159Z" fill="#FAF2DA"/>
</svg>
