<svg width="65" height="55" viewBox="0 0 65 55" fill="none" xmlns="http://www.w3.org/2000/svg">
<path d="M0.363938 54V43.536H2.45994L4.31594 48.656C4.43327 48.9867 4.54527 49.328 4.65194 49.68C4.75861 50.0213 4.87061 50.3627 4.98794 50.704H5.05194C5.16927 50.3627 5.27594 50.0213 5.37194 49.68C5.47861 49.328 5.59061 48.9867 5.70794 48.656L7.51594 43.536H9.62794V54H7.91594V49.216C7.91594 48.9707 7.92127 48.704 7.93194 48.416C7.95327 48.128 7.97461 47.84 7.99594 47.552C8.01727 47.2533 8.04394 46.9653 8.07594 46.688C8.10794 46.4 8.13461 46.1333 8.15594 45.888H8.09194L7.24394 48.32L5.53194 53.024H4.42794L2.69994 48.32L1.86794 45.888H1.80394C1.82527 46.1333 1.84661 46.4 1.86794 46.688C1.89994 46.9653 1.92661 47.2533 1.94794 47.552C1.97994 47.84 2.00127 48.128 2.01194 48.416C2.03327 48.704 2.04394 48.9707 2.04394 49.216V54H0.363938ZM16.2858 54.192C15.7418 54.192 15.2351 54.1013 14.7658 53.92C14.2965 53.728 13.8858 53.456 13.5338 53.104C13.1818 52.752 12.9045 52.3253 12.7018 51.824C12.5098 51.312 12.4138 50.7307 12.4138 50.08C12.4138 49.44 12.5151 48.864 12.7178 48.352C12.9205 47.84 13.1871 47.408 13.5178 47.056C13.8591 46.704 14.2485 46.432 14.6858 46.24C15.1231 46.048 15.5711 45.952 16.0298 45.952C16.5631 45.952 17.0325 46.0427 17.4378 46.224C17.8431 46.4053 18.1791 46.6613 18.4458 46.992C18.7231 47.3227 18.9311 47.7173 19.0698 48.176C19.2085 48.6347 19.2778 49.136 19.2778 49.68C19.2778 49.8613 19.2671 50.032 19.2458 50.192C19.2351 50.352 19.2191 50.48 19.1978 50.576H14.2058C14.2911 51.28 14.5365 51.824 14.9418 52.208C15.3578 52.5813 15.8858 52.768 16.5258 52.768C16.8671 52.768 17.1818 52.72 17.4698 52.624C17.7685 52.5173 18.0618 52.3733 18.3498 52.192L18.9738 53.344C18.6005 53.5893 18.1845 53.792 17.7258 53.952C17.2671 54.112 16.7871 54.192 16.2858 54.192ZM14.1898 49.328H17.6778C17.6778 48.72 17.5445 48.2453 17.2778 47.904C17.0218 47.552 16.6218 47.376 16.0778 47.376C15.6085 47.376 15.1978 47.5413 14.8458 47.872C14.4938 48.2027 14.2751 48.688 14.1898 49.328ZM24.5872 54.192C23.5952 54.192 22.8059 53.8347 22.2192 53.12C21.6432 52.3947 21.3552 51.3813 21.3552 50.08C21.3552 49.44 21.4459 48.864 21.6272 48.352C21.8192 47.84 22.0699 47.408 22.3792 47.056C22.6885 46.704 23.0405 46.432 23.4352 46.24C23.8405 46.048 24.2565 45.952 24.6832 45.952C25.1312 45.952 25.5099 46.032 25.8192 46.192C26.1285 46.3413 26.4379 46.5493 26.7472 46.816L26.6832 45.552V42.704H28.5232V54H27.0032L26.8752 53.152H26.8112C26.5232 53.44 26.1872 53.6853 25.8032 53.888C25.4192 54.0907 25.0139 54.192 24.5872 54.192ZM25.0352 52.672C25.6219 52.672 26.1712 52.3787 26.6832 51.792V48.128C26.4059 47.8827 26.1339 47.712 25.8672 47.616C25.6112 47.52 25.3499 47.472 25.0832 47.472C24.5712 47.472 24.1392 47.696 23.7872 48.144C23.4352 48.592 23.2592 49.232 23.2592 50.064C23.2592 50.9173 23.4085 51.568 23.7072 52.016C24.0165 52.4533 24.4592 52.672 25.0352 52.672ZM31.6664 54V46.144H33.5064V54H31.6664ZM32.5944 44.768C32.2638 44.768 31.9918 44.672 31.7784 44.48C31.5651 44.288 31.4584 44.0373 31.4584 43.728C31.4584 43.4187 31.5651 43.168 31.7784 42.976C31.9918 42.7733 32.2638 42.672 32.5944 42.672C32.9251 42.672 33.1971 42.7733 33.4104 42.976C33.6238 43.168 33.7304 43.4187 33.7304 43.728C33.7304 44.0373 33.6238 44.288 33.4104 44.48C33.1971 44.672 32.9251 44.768 32.5944 44.768ZM39.4219 54.192C38.9633 54.192 38.5739 54.1227 38.2539 53.984C37.9446 53.8453 37.6886 53.6533 37.4859 53.408C37.2939 53.152 37.1499 52.8533 37.0539 52.512C36.9686 52.16 36.9259 51.7707 36.9259 51.344V47.6H35.8059V46.224L37.0219 46.144L37.2459 44H38.7819V46.144H40.7819V47.6H38.7819V51.344C38.7819 52.2613 39.1499 52.72 39.8859 52.72C40.0246 52.72 40.1633 52.704 40.3019 52.672C40.4513 52.64 40.5846 52.5973 40.7019 52.544L41.0219 53.904C40.8086 53.9787 40.5633 54.0427 40.2859 54.096C40.0193 54.16 39.7313 54.192 39.4219 54.192ZM44.7954 54.192C44.1021 54.192 43.5421 53.984 43.1154 53.568C42.6888 53.1413 42.4754 52.5813 42.4754 51.888C42.4754 51.472 42.5608 51.104 42.7314 50.784C42.9128 50.4533 43.1901 50.1707 43.5634 49.936C43.9474 49.7013 44.4274 49.504 45.0034 49.344C45.5901 49.184 46.2888 49.0613 47.0994 48.976C47.0888 48.7733 47.0568 48.5813 47.0034 48.4C46.9608 48.208 46.8808 48.0427 46.7634 47.904C46.6568 47.7547 46.5128 47.6427 46.3314 47.568C46.1501 47.4827 45.9261 47.44 45.6594 47.44C45.2754 47.44 44.8968 47.5147 44.5234 47.664C44.1608 47.8133 43.8034 47.9947 43.4514 48.208L42.7794 46.976C43.2168 46.6987 43.7074 46.4587 44.2514 46.256C44.7954 46.0533 45.3821 45.952 46.0114 45.952C46.9928 45.952 47.7234 46.2453 48.2034 46.832C48.6941 47.408 48.9394 48.2453 48.9394 49.344V54H47.4194L47.2914 53.136H47.2274C46.8754 53.4347 46.4968 53.6853 46.0914 53.888C45.6968 54.0907 45.2648 54.192 44.7954 54.192ZM45.3874 52.752C45.7074 52.752 45.9954 52.6773 46.2514 52.528C46.5181 52.3787 46.8008 52.1653 47.0994 51.888V50.128C46.5661 50.192 46.1181 50.2773 45.7554 50.384C45.3928 50.4907 45.0994 50.6133 44.8754 50.752C44.6514 50.88 44.4914 51.0293 44.3954 51.2C44.2994 51.3707 44.2514 51.552 44.2514 51.744C44.2514 52.096 44.3581 52.352 44.5714 52.512C44.7848 52.672 45.0568 52.752 45.3874 52.752ZM54.4594 54.192C54.0008 54.192 53.6114 54.1227 53.2914 53.984C52.9821 53.8453 52.7261 53.6533 52.5234 53.408C52.3314 53.152 52.1874 52.8533 52.0914 52.512C52.0061 52.16 51.9634 51.7707 51.9634 51.344V47.6H50.8434V46.224L52.0594 46.144L52.2834 44H53.8194V46.144H55.8194V47.6H53.8194V51.344C53.8194 52.2613 54.1874 52.72 54.9234 52.72C55.0621 52.72 55.2008 52.704 55.3394 52.672C55.4888 52.64 55.6221 52.5973 55.7394 52.544L56.0594 53.904C55.8461 53.9787 55.6008 54.0427 55.3234 54.096C55.0568 54.16 54.7688 54.192 54.4594 54.192ZM61.3827 54.192C60.8387 54.192 60.332 54.1013 59.8627 53.92C59.3934 53.728 58.9827 53.456 58.6307 53.104C58.2787 52.752 58.0014 52.3253 57.7987 51.824C57.6067 51.312 57.5107 50.7307 57.5107 50.08C57.5107 49.44 57.612 48.864 57.8147 48.352C58.0174 47.84 58.284 47.408 58.6147 47.056C58.956 46.704 59.3454 46.432 59.7827 46.24C60.22 46.048 60.668 45.952 61.1267 45.952C61.66 45.952 62.1294 46.0427 62.5347 46.224C62.94 46.4053 63.276 46.6613 63.5427 46.992C63.82 47.3227 64.028 47.7173 64.1667 48.176C64.3054 48.6347 64.3747 49.136 64.3747 49.68C64.3747 49.8613 64.364 50.032 64.3427 50.192C64.332 50.352 64.316 50.48 64.2947 50.576H59.3027C59.388 51.28 59.6334 51.824 60.0387 52.208C60.4547 52.5813 60.9827 52.768 61.6227 52.768C61.964 52.768 62.2787 52.72 62.5667 52.624C62.8654 52.5173 63.1587 52.3733 63.4467 52.192L64.0707 53.344C63.6974 53.5893 63.2814 53.792 62.8227 53.952C62.364 54.112 61.884 54.192 61.3827 54.192ZM59.2867 49.328H62.7747C62.7747 48.72 62.6414 48.2453 62.3747 47.904C62.1187 47.552 61.7187 47.376 61.1747 47.376C60.7054 47.376 60.2947 47.5413 59.9427 47.872C59.5907 48.2027 59.372 48.688 59.2867 49.328Z" fill="#A1A4B2"/>
<path d="M31.2173 22.0002C30.6635 22.0002 25.833 21.9366 23.8536 19.6031C23.1454 18.7678 22.873 17.7236 23.0546 16.5886L23.0728 16.4887C23.0909 16.407 23.1 16.3344 23.1182 16.2618L23.4541 14.9361C23.7447 13.9283 24.0443 13.0748 24.3803 12.2757C24.7525 11.4041 25.2338 10.5688 25.8966 9.6517C26.7501 8.46225 27.7761 7.11845 29.1562 6.29219C29.6193 6.0198 30.3457 5.70201 31.1992 5.75649C32.0617 5.70201 32.779 6.01072 33.2421 6.29219C34.5677 7.08213 35.5938 8.37145 36.5108 9.6517C37.1646 10.5688 37.6458 11.4041 38.0271 12.2757C38.4448 13.2382 38.7989 14.3005 39.1076 15.5081L39.2983 16.2618C39.5798 17.4784 39.3618 18.5952 38.6445 19.4941C36.7287 21.9366 31.7803 22.0002 31.2173 22.0002ZM25.1157 15.7714L24.8615 16.8156C24.7525 17.5057 24.8706 18.0051 25.2428 18.4318C26.4686 19.8755 29.9734 20.1933 31.2173 20.1933H31.2264C32.4976 20.1933 36.0659 19.8664 37.2463 18.3773C37.6185 17.9143 37.7093 17.3695 37.5459 16.6794L37.3734 15.9712C37.0828 14.8544 36.756 13.8829 36.3837 13.0021C36.0568 12.2485 35.6392 11.5221 35.058 10.7049C34.3135 9.66078 33.4328 8.49857 32.3432 7.85391C31.98 7.64507 31.6168 7.5452 31.299 7.57244L31.2173 7.58152L31.1265 7.57244C30.8178 7.5452 30.4455 7.64507 30.1005 7.85391C29.02 8.49857 28.1302 9.66078 27.3857 10.7049C26.8046 11.5221 26.3869 12.2485 26.06 13.0021C25.7513 13.7194 25.4789 14.5003 25.2247 15.3901L25.1157 15.7714Z" fill="#A0A3B1"/>
<path d="M37.5095 6.98233C35.5846 6.98233 34.0229 5.42061 34.0229 3.4957C34.0229 1.5708 35.5846 0 37.5095 0C39.4344 0 40.9962 1.56172 40.9962 3.48662C40.9962 5.41153 39.4344 6.98233 37.5095 6.98233ZM37.5095 1.81595C36.5834 1.81595 35.8389 2.56957 35.8389 3.48662C35.8389 4.40368 36.5925 5.1573 37.5095 5.1573C38.4266 5.1573 39.1802 4.40368 39.1802 3.48662C39.1802 2.56957 38.4266 1.81595 37.5095 1.81595Z" fill="#A0A3B1"/>
</svg>
