<svg width="46" height="67" viewBox="0 0 46 67" fill="none" xmlns="http://www.w3.org/2000/svg">
<path d="M6.29206 66V55.536H8.14806V64.432H12.5001V66H6.29206ZM18.1202 66.192C17.5762 66.192 17.0695 66.1013 16.6002 65.92C16.1309 65.728 15.7202 65.456 15.3682 65.104C15.0162 64.752 14.7389 64.3253 14.5362 63.824C14.3442 63.312 14.2482 62.7307 14.2482 62.08C14.2482 61.44 14.3495 60.864 14.5522 60.352C14.7549 59.84 15.0215 59.408 15.3522 59.056C15.6935 58.704 16.0829 58.432 16.5202 58.24C16.9575 58.048 17.4055 57.952 17.8642 57.952C18.3975 57.952 18.8669 58.0427 19.2722 58.224C19.6775 58.4053 20.0135 58.6613 20.2802 58.992C20.5575 59.3227 20.7655 59.7173 20.9042 60.176C21.0429 60.6347 21.1122 61.136 21.1122 61.68C21.1122 61.8613 21.1015 62.032 21.0802 62.192C21.0695 62.352 21.0535 62.48 21.0322 62.576H16.0402C16.1255 63.28 16.3709 63.824 16.7762 64.208C17.1922 64.5813 17.7202 64.768 18.3602 64.768C18.7015 64.768 19.0162 64.72 19.3042 64.624C19.6029 64.5173 19.8962 64.3733 20.1842 64.192L20.8082 65.344C20.4349 65.5893 20.0189 65.792 19.5602 65.952C19.1015 66.112 18.6215 66.192 18.1202 66.192ZM16.0242 61.328H19.5122C19.5122 60.72 19.3789 60.2453 19.1122 59.904C18.8562 59.552 18.4562 59.376 17.9122 59.376C17.4429 59.376 17.0322 59.5413 16.6802 59.872C16.3282 60.2027 16.1095 60.688 16.0242 61.328ZM26.8856 66.192C26.3949 66.192 25.9256 66.1013 25.4776 65.92C25.0296 65.7387 24.6296 65.472 24.2776 65.12C23.9362 64.768 23.6642 64.336 23.4616 63.824C23.2589 63.312 23.1576 62.7307 23.1576 62.08C23.1576 61.4293 23.2589 60.848 23.4616 60.336C23.6642 59.824 23.9362 59.392 24.2776 59.04C24.6296 58.688 25.0296 58.4213 25.4776 58.24C25.9256 58.048 26.3949 57.952 26.8856 57.952C27.3762 57.952 27.8456 58.048 28.2936 58.24C28.7522 58.4213 29.1522 58.688 29.4936 59.04C29.8349 59.392 30.1069 59.824 30.3096 60.336C30.5229 60.848 30.6296 61.4293 30.6296 62.08C30.6296 62.7307 30.5229 63.312 30.3096 63.824C30.1069 64.336 29.8349 64.768 29.4936 65.12C29.1522 65.472 28.7522 65.7387 28.2936 65.92C27.8456 66.1013 27.3762 66.192 26.8856 66.192ZM26.8856 64.688C27.4616 64.688 27.9149 64.4533 28.2456 63.984C28.5762 63.504 28.7416 62.8693 28.7416 62.08C28.7416 61.28 28.5762 60.6453 28.2456 60.176C27.9149 59.696 27.4616 59.456 26.8856 59.456C26.3096 59.456 25.8562 59.696 25.5256 60.176C25.2056 60.6453 25.0456 61.28 25.0456 62.08C25.0456 62.8693 25.2056 63.504 25.5256 63.984C25.8562 64.4533 26.3096 64.688 26.8856 64.688ZM33.2508 66V58.144H34.7708L34.8988 59.2H34.9628C35.3148 58.8587 35.6935 58.5653 36.0988 58.32C36.5148 58.0747 36.9948 57.952 37.5388 57.952C38.3815 57.952 38.9948 58.224 39.3788 58.768C39.7628 59.3013 39.9548 60.0693 39.9548 61.072V66H38.1148V61.312C38.1148 60.6613 38.0188 60.2027 37.8268 59.936C37.6348 59.6693 37.3201 59.536 36.8828 59.536C36.5415 59.536 36.2375 59.6213 35.9708 59.792C35.7148 59.952 35.4215 60.192 35.0908 60.512V66H33.2508Z" fill="#E28F83"/>
<rect width="46" height="46" rx="18" fill="#E28F83"/>
<path d="M17.3233 16.3113C17.3233 19.2925 19.7479 21.7154 22.731 21.7154C25.7142 21.7154 28.1387 19.2851 28.1387 16.3041C28.1387 13.3229 25.7141 10.9 22.731 10.9C19.7478 10.9 17.3233 13.323 17.3233 16.3113ZM18.9656 16.3041C18.9656 14.2333 20.6517 12.5413 22.731 12.5413C24.8103 12.5413 26.4964 14.2333 26.4964 16.3041C26.4964 18.3748 24.8032 20.0669 22.731 20.0669C20.6587 20.0669 18.9656 18.3748 18.9656 16.3041Z" fill="#FAF2DA" stroke="#FAF2DA" stroke-width="0.2"/>
<path d="M27.7543 34.0001H17.7073C15.1078 34.0001 13 31.6235 13 28.6924C13 25.7612 15.1165 23.3846 17.7073 23.3846H27.7543C30.3539 23.3846 32.4616 25.7711 32.4616 28.6924C32.4616 31.6136 30.3539 34.0001 27.7543 34.0001ZM17.7073 25.3651C16.0826 25.3651 14.7565 26.8604 14.7565 28.6924C14.7565 30.5243 16.0826 32.0196 17.7073 32.0196H27.7543C29.379 32.0196 30.7052 30.5243 30.7052 28.6924C30.7052 26.8604 29.379 25.3651 27.7543 25.3651H17.7073Z" fill="#FAF2DA"/>
</svg>
