<svg width="46" height="57" viewBox="0 0 46 57" fill="none" xmlns="http://www.w3.org/2000/svg">
<path d="M6.29206 56V45.536H8.14806V54.432H12.5001V56H6.29206ZM18.1202 56.192C17.5762 56.192 17.0695 56.1013 16.6002 55.92C16.1309 55.728 15.7202 55.456 15.3682 55.104C15.0162 54.752 14.7389 54.3253 14.5362 53.824C14.3442 53.312 14.2482 52.7307 14.2482 52.08C14.2482 51.44 14.3495 50.864 14.5522 50.352C14.7549 49.84 15.0215 49.408 15.3522 49.056C15.6935 48.704 16.0829 48.432 16.5202 48.24C16.9575 48.048 17.4055 47.952 17.8642 47.952C18.3975 47.952 18.8669 48.0427 19.2722 48.224C19.6775 48.4053 20.0135 48.6613 20.2802 48.992C20.5575 49.3227 20.7655 49.7173 20.9042 50.176C21.0429 50.6347 21.1122 51.136 21.1122 51.68C21.1122 51.8613 21.1015 52.032 21.0802 52.192C21.0695 52.352 21.0535 52.48 21.0322 52.576H16.0402C16.1255 53.28 16.3709 53.824 16.7762 54.208C17.1922 54.5813 17.7202 54.768 18.3602 54.768C18.7015 54.768 19.0162 54.72 19.3042 54.624C19.6029 54.5173 19.8962 54.3733 20.1842 54.192L20.8082 55.344C20.4349 55.5893 20.0189 55.792 19.5602 55.952C19.1015 56.112 18.6215 56.192 18.1202 56.192ZM16.0242 51.328H19.5122C19.5122 50.72 19.3789 50.2453 19.1122 49.904C18.8562 49.552 18.4562 49.376 17.9122 49.376C17.4429 49.376 17.0322 49.5413 16.6802 49.872C16.3282 50.2027 16.1095 50.688 16.0242 51.328ZM26.8856 56.192C26.3949 56.192 25.9256 56.1013 25.4776 55.92C25.0296 55.7387 24.6296 55.472 24.2776 55.12C23.9362 54.768 23.6642 54.336 23.4616 53.824C23.2589 53.312 23.1576 52.7307 23.1576 52.08C23.1576 51.4293 23.2589 50.848 23.4616 50.336C23.6642 49.824 23.9362 49.392 24.2776 49.04C24.6296 48.688 25.0296 48.4213 25.4776 48.24C25.9256 48.048 26.3949 47.952 26.8856 47.952C27.3762 47.952 27.8456 48.048 28.2936 48.24C28.7522 48.4213 29.1522 48.688 29.4936 49.04C29.8349 49.392 30.1069 49.824 30.3096 50.336C30.5229 50.848 30.6296 51.4293 30.6296 52.08C30.6296 52.7307 30.5229 53.312 30.3096 53.824C30.1069 54.336 29.8349 54.768 29.4936 55.12C29.1522 55.472 28.7522 55.7387 28.2936 55.92C27.8456 56.1013 27.3762 56.192 26.8856 56.192ZM26.8856 54.688C27.4616 54.688 27.9149 54.4533 28.2456 53.984C28.5762 53.504 28.7416 52.8693 28.7416 52.08C28.7416 51.28 28.5762 50.6453 28.2456 50.176C27.9149 49.696 27.4616 49.456 26.8856 49.456C26.3096 49.456 25.8562 49.696 25.5256 50.176C25.2056 50.6453 25.0456 51.28 25.0456 52.08C25.0456 52.8693 25.2056 53.504 25.5256 53.984C25.8562 54.4533 26.3096 54.688 26.8856 54.688ZM33.2508 56V48.144H34.7708L34.8988 49.2H34.9628C35.3148 48.8587 35.6935 48.5653 36.0988 48.32C36.5148 48.0747 36.9948 47.952 37.5388 47.952C38.3815 47.952 38.9948 48.224 39.3788 48.768C39.7628 49.3013 39.9548 50.0693 39.9548 51.072V56H38.1148V51.312C38.1148 50.6613 38.0188 50.2027 37.8268 49.936C37.6348 49.6693 37.3201 49.536 36.8828 49.536C36.5415 49.536 36.2375 49.6213 35.9708 49.792C35.7148 49.952 35.4215 50.192 35.0908 50.512V56H33.2508Z" fill="#A1A4B2"/>
<path d="M17.3233 6.31132C17.3233 9.29253 19.7479 11.7154 22.731 11.7154C25.7142 11.7154 28.1387 9.28514 28.1387 6.30412C28.1387 3.32291 25.7141 0.9 22.731 0.9C19.7478 0.9 17.3233 3.323 17.3233 6.31132ZM18.9656 6.30412C18.9656 4.23332 20.6517 2.54134 22.731 2.54134C24.8103 2.54134 26.4964 4.23332 26.4964 6.30412C26.4964 8.37479 24.8032 10.0669 22.731 10.0669C20.6587 10.0669 18.9656 8.37479 18.9656 6.30412Z" fill="#A0A3B1" stroke="#A0A3B1" stroke-width="0.2"/>
<path d="M27.7543 24.0001H17.7073C15.1078 24.0001 13 21.6235 13 18.6924C13 15.7612 15.1165 13.3846 17.7073 13.3846H27.7543C30.3539 13.3846 32.4616 15.7711 32.4616 18.6924C32.4616 21.6136 30.3539 24.0001 27.7543 24.0001ZM17.7073 15.3651C16.0826 15.3651 14.7565 16.8604 14.7565 18.6924C14.7565 20.5243 16.0826 22.0196 17.7073 22.0196H27.7543C29.379 22.0196 30.7052 20.5243 30.7052 18.6924C30.7052 16.8604 29.379 15.3651 27.7543 15.3651H17.7073Z" fill="#A0A3B1"/>
</svg>
