<svg width="46" height="67" viewBox="0 0 46 67" fill="none" xmlns="http://www.w3.org/2000/svg">
<path d="M2.63581 66V55.536H4.49181V59.744H8.73181V55.536H10.5878V66H8.73181V61.36H4.49181V66H2.63581ZM17.1012 66.192C16.6105 66.192 16.1412 66.1013 15.6932 65.92C15.2452 65.7387 14.8452 65.472 14.4932 65.12C14.1519 64.768 13.8799 64.336 13.6772 63.824C13.4745 63.312 13.3732 62.7307 13.3732 62.08C13.3732 61.4293 13.4745 60.848 13.6772 60.336C13.8799 59.824 14.1519 59.392 14.4932 59.04C14.8452 58.688 15.2452 58.4213 15.6932 58.24C16.1412 58.048 16.6105 57.952 17.1012 57.952C17.5919 57.952 18.0612 58.048 18.5092 58.24C18.9679 58.4213 19.3679 58.688 19.7092 59.04C20.0505 59.392 20.3225 59.824 20.5252 60.336C20.7385 60.848 20.8452 61.4293 20.8452 62.08C20.8452 62.7307 20.7385 63.312 20.5252 63.824C20.3225 64.336 20.0505 64.768 19.7092 65.12C19.3679 65.472 18.9679 65.7387 18.5092 65.92C18.0612 66.1013 17.5919 66.192 17.1012 66.192ZM17.1012 64.688C17.6772 64.688 18.1305 64.4533 18.4612 63.984C18.7919 63.504 18.9572 62.8693 18.9572 62.08C18.9572 61.28 18.7919 60.6453 18.4612 60.176C18.1305 59.696 17.6772 59.456 17.1012 59.456C16.5252 59.456 16.0719 59.696 15.7412 60.176C15.4212 60.6453 15.2612 61.28 15.2612 62.08C15.2612 62.8693 15.4212 63.504 15.7412 63.984C16.0719 64.4533 16.5252 64.688 17.1012 64.688ZM23.4664 66V58.144H24.9864L25.1144 59.216H25.1784C25.5091 58.864 25.8664 58.5653 26.2504 58.32C26.6451 58.0747 27.0878 57.952 27.5784 57.952C28.1544 57.952 28.6131 58.0747 28.9544 58.32C29.3064 58.5653 29.5731 58.912 29.7544 59.36C30.1278 58.9547 30.5171 58.6187 30.9224 58.352C31.3278 58.0853 31.7811 57.952 32.2824 57.952C33.1144 57.952 33.7278 58.224 34.1224 58.768C34.5171 59.3013 34.7144 60.0693 34.7144 61.072V66H32.8584V61.312C32.8584 60.6613 32.7571 60.2027 32.5544 59.936C32.3624 59.6693 32.0638 59.536 31.6584 59.536C31.1678 59.536 30.6184 59.8613 30.0104 60.512V66H28.1704V61.312C28.1704 60.6613 28.0691 60.2027 27.8664 59.936C27.6744 59.6693 27.3704 59.536 26.9544 59.536C26.4638 59.536 25.9144 59.8613 25.3064 60.512V66H23.4664ZM41.1108 66.192C40.5668 66.192 40.0601 66.1013 39.5908 65.92C39.1215 65.728 38.7108 65.456 38.3588 65.104C38.0068 64.752 37.7295 64.3253 37.5268 63.824C37.3348 63.312 37.2388 62.7307 37.2388 62.08C37.2388 61.44 37.3401 60.864 37.5428 60.352C37.7455 59.84 38.0121 59.408 38.3428 59.056C38.6841 58.704 39.0735 58.432 39.5108 58.24C39.9481 58.048 40.3961 57.952 40.8548 57.952C41.3881 57.952 41.8575 58.0427 42.2628 58.224C42.6681 58.4053 43.0041 58.6613 43.2708 58.992C43.5481 59.3227 43.7561 59.7173 43.8948 60.176C44.0335 60.6347 44.1028 61.136 44.1028 61.68C44.1028 61.8613 44.0921 62.032 44.0708 62.192C44.0601 62.352 44.0441 62.48 44.0228 62.576H39.0308C39.1161 63.28 39.3615 63.824 39.7668 64.208C40.1828 64.5813 40.7108 64.768 41.3508 64.768C41.6921 64.768 42.0068 64.72 42.2948 64.624C42.5935 64.5173 42.8868 64.3733 43.1748 64.192L43.7988 65.344C43.4255 65.5893 43.0095 65.792 42.5508 65.952C42.0921 66.112 41.6121 66.192 41.1108 66.192ZM39.0148 61.328H42.5028C42.5028 60.72 42.3695 60.2453 42.1028 59.904C41.8468 59.552 41.4468 59.376 40.9028 59.376C40.4335 59.376 40.0228 59.5413 39.6708 59.872C39.3188 60.2027 39.1001 60.688 39.0148 61.328Z" fill="#E28F83"/>
<rect width="46" height="46" rx="18" fill="#E28F83"/>
<path d="M32.3204 19.5059L24.7282 12.8191C23.6436 11.7345 21.8778 11.7345 20.8381 12.7743L13.1563 19.5508C12.4123 20.2947 12 21.2897 12 22.3474V31.302C12 32.7899 13.2101 34 14.698 34H30.8324C32.3114 34 33.5215 32.7899 33.5215 31.302V22.3474C33.5215 21.2897 33.1092 20.2947 32.3204 19.5059ZM31.7288 31.302C31.7288 31.8039 31.3254 32.2073 30.8324 32.2073H25.1495V26.4348C25.1495 25.9149 24.7372 25.5026 24.2173 25.5026H21.3042C20.7932 25.5026 20.372 25.9149 20.372 26.4348V32.2073H14.698C14.1961 32.2073 13.7927 31.8039 13.7927 31.302V22.3474C13.7927 21.7827 14.0258 21.218 14.3843 20.8505L22.0661 14.083C22.2543 13.8948 22.4963 13.7962 22.7473 13.7962C23.0162 13.7962 23.2851 13.9037 23.5002 14.1188L31.0924 20.8146C31.5047 21.2269 31.7288 21.7737 31.7288 22.3474V31.302Z" fill="#FAF2DA"/>
</svg>
