<svg width="46" height="55" viewBox="0 0 46 55" fill="none" xmlns="http://www.w3.org/2000/svg">
<path d="M2.63581 54V43.536H4.49181V47.744H8.73181V43.536H10.5878V54H8.73181V49.36H4.49181V54H2.63581ZM17.1012 54.192C16.6105 54.192 16.1412 54.1013 15.6932 53.92C15.2452 53.7387 14.8452 53.472 14.4932 53.12C14.1519 52.768 13.8799 52.336 13.6772 51.824C13.4745 51.312 13.3732 50.7307 13.3732 50.08C13.3732 49.4293 13.4745 48.848 13.6772 48.336C13.8799 47.824 14.1519 47.392 14.4932 47.04C14.8452 46.688 15.2452 46.4213 15.6932 46.24C16.1412 46.048 16.6105 45.952 17.1012 45.952C17.5919 45.952 18.0612 46.048 18.5092 46.24C18.9679 46.4213 19.3679 46.688 19.7092 47.04C20.0505 47.392 20.3225 47.824 20.5252 48.336C20.7385 48.848 20.8452 49.4293 20.8452 50.08C20.8452 50.7307 20.7385 51.312 20.5252 51.824C20.3225 52.336 20.0505 52.768 19.7092 53.12C19.3679 53.472 18.9679 53.7387 18.5092 53.92C18.0612 54.1013 17.5919 54.192 17.1012 54.192ZM17.1012 52.688C17.6772 52.688 18.1305 52.4533 18.4612 51.984C18.7919 51.504 18.9572 50.8693 18.9572 50.08C18.9572 49.28 18.7919 48.6453 18.4612 48.176C18.1305 47.696 17.6772 47.456 17.1012 47.456C16.5252 47.456 16.0719 47.696 15.7412 48.176C15.4212 48.6453 15.2612 49.28 15.2612 50.08C15.2612 50.8693 15.4212 51.504 15.7412 51.984C16.0719 52.4533 16.5252 52.688 17.1012 52.688ZM23.4664 54V46.144H24.9864L25.1144 47.216H25.1784C25.5091 46.864 25.8664 46.5653 26.2504 46.32C26.6451 46.0747 27.0878 45.952 27.5784 45.952C28.1544 45.952 28.6131 46.0747 28.9544 46.32C29.3064 46.5653 29.5731 46.912 29.7544 47.36C30.1278 46.9547 30.5171 46.6187 30.9224 46.352C31.3278 46.0853 31.7811 45.952 32.2824 45.952C33.1144 45.952 33.7278 46.224 34.1224 46.768C34.5171 47.3013 34.7144 48.0693 34.7144 49.072V54H32.8584V49.312C32.8584 48.6613 32.7571 48.2027 32.5544 47.936C32.3624 47.6693 32.0638 47.536 31.6584 47.536C31.1678 47.536 30.6184 47.8613 30.0104 48.512V54H28.1704V49.312C28.1704 48.6613 28.0691 48.2027 27.8664 47.936C27.6744 47.6693 27.3704 47.536 26.9544 47.536C26.4638 47.536 25.9144 47.8613 25.3064 48.512V54H23.4664ZM41.1108 54.192C40.5668 54.192 40.0601 54.1013 39.5908 53.92C39.1215 53.728 38.7108 53.456 38.3588 53.104C38.0068 52.752 37.7295 52.3253 37.5268 51.824C37.3348 51.312 37.2388 50.7307 37.2388 50.08C37.2388 49.44 37.3401 48.864 37.5428 48.352C37.7455 47.84 38.0121 47.408 38.3428 47.056C38.6841 46.704 39.0735 46.432 39.5108 46.24C39.9481 46.048 40.3961 45.952 40.8548 45.952C41.3881 45.952 41.8575 46.0427 42.2628 46.224C42.6681 46.4053 43.0041 46.6613 43.2708 46.992C43.5481 47.3227 43.7561 47.7173 43.8948 48.176C44.0335 48.6347 44.1028 49.136 44.1028 49.68C44.1028 49.8613 44.0921 50.032 44.0708 50.192C44.0601 50.352 44.0441 50.48 44.0228 50.576H39.0308C39.1161 51.28 39.3615 51.824 39.7668 52.208C40.1828 52.5813 40.7108 52.768 41.3508 52.768C41.6921 52.768 42.0068 52.72 42.2948 52.624C42.5935 52.5173 42.8868 52.3733 43.1748 52.192L43.7988 53.344C43.4255 53.5893 43.0095 53.792 42.5508 53.952C42.0921 54.112 41.6121 54.192 41.1108 54.192ZM39.0148 49.328H42.5028C42.5028 48.72 42.3695 48.2453 42.1028 47.904C41.8468 47.552 41.4468 47.376 40.9028 47.376C40.4335 47.376 40.0228 47.5413 39.6708 47.872C39.3188 48.2027 39.1001 48.688 39.0148 49.328Z" fill="#A1A4B2"/>
<path d="M32.3204 7.50594L24.7282 0.819133C23.6436 -0.265457 21.8778 -0.265456 20.8381 0.774315L13.1563 7.55076C12.4123 8.29473 12 9.28969 12 10.3474V19.302C12 20.7899 13.2101 22 14.698 22H30.8324C32.3114 22 33.5215 20.7899 33.5215 19.302V10.3474C33.5215 9.28969 33.1092 8.29473 32.3204 7.50594ZM31.7288 19.302C31.7288 19.8039 31.3254 20.2073 30.8324 20.2073H25.1495V14.4348C25.1495 13.9149 24.7372 13.5026 24.2173 13.5026H21.3042C20.7932 13.5026 20.372 13.9149 20.372 14.4348V20.2073H14.698C14.1961 20.2073 13.7927 19.8039 13.7927 19.302V10.3474C13.7927 9.78268 14.0258 9.21798 14.3843 8.85047L22.0661 2.08299C22.2543 1.89476 22.4963 1.79616 22.7473 1.79616C23.0162 1.79616 23.2851 1.90372 23.5002 2.11885L31.0924 8.81462C31.5047 9.22694 31.7288 9.77372 31.7288 10.3474V19.302Z" fill="#A1A4B2"/>
</svg>
