<svg width="46" height="70" viewBox="0 0 46 70" fill="none" xmlns="http://www.w3.org/2000/svg">
<path d="M8.71575 66V62.112L5.57975 55.536H7.56375L8.69975 58.208C8.84908 58.6027 8.99842 58.9867 9.14775 59.36C9.29708 59.7227 9.45708 60.1067 9.62775 60.512H9.69175C9.86242 60.1067 10.0277 59.7227 10.1877 59.36C10.3477 58.9867 10.5024 58.6027 10.6517 58.208L11.7877 55.536H13.7237L10.5717 62.112V66H8.71575ZM18.0777 66.192C17.5871 66.192 17.1177 66.1013 16.6697 65.92C16.2217 65.7387 15.8217 65.472 15.4697 65.12C15.1284 64.768 14.8564 64.336 14.6537 63.824C14.4511 63.312 14.3497 62.7307 14.3497 62.08C14.3497 61.4293 14.4511 60.848 14.6537 60.336C14.8564 59.824 15.1284 59.392 15.4697 59.04C15.8217 58.688 16.2217 58.4213 16.6697 58.24C17.1177 58.048 17.5871 57.952 18.0777 57.952C18.5684 57.952 19.0377 58.048 19.4857 58.24C19.9444 58.4213 20.3444 58.688 20.6857 59.04C21.0271 59.392 21.2991 59.824 21.5017 60.336C21.7151 60.848 21.8217 61.4293 21.8217 62.08C21.8217 62.7307 21.7151 63.312 21.5017 63.824C21.2991 64.336 21.0271 64.768 20.6857 65.12C20.3444 65.472 19.9444 65.7387 19.4857 65.92C19.0377 66.1013 18.5684 66.192 18.0777 66.192ZM18.0777 64.688C18.6537 64.688 19.1071 64.4533 19.4377 63.984C19.7684 63.504 19.9337 62.8693 19.9337 62.08C19.9337 61.28 19.7684 60.6453 19.4377 60.176C19.1071 59.696 18.6537 59.456 18.0777 59.456C17.5017 59.456 17.0484 59.696 16.7177 60.176C16.3977 60.6453 16.2377 61.28 16.2377 62.08C16.2377 62.8693 16.3977 63.504 16.7177 63.984C17.0484 64.4533 17.5017 64.688 18.0777 64.688ZM27.179 69.472C26.7097 69.472 26.2723 69.4293 25.867 69.344C25.4723 69.2587 25.131 69.1307 24.843 68.96C24.555 68.7893 24.3257 68.576 24.155 68.32C23.995 68.064 23.915 67.7653 23.915 67.424C23.915 67.0933 24.011 66.784 24.203 66.496C24.395 66.2187 24.6723 65.968 25.035 65.744V65.68C24.8323 65.552 24.6617 65.3813 24.523 65.168C24.395 64.9547 24.331 64.688 24.331 64.368C24.331 64.0587 24.4163 63.7813 24.587 63.536C24.7683 63.28 24.971 63.072 25.195 62.912V62.848C24.9283 62.6453 24.6883 62.368 24.475 62.016C24.2723 61.6533 24.171 61.2373 24.171 60.768C24.171 60.32 24.2563 59.92 24.427 59.568C24.5977 59.216 24.8217 58.9227 25.099 58.688C25.387 58.4427 25.7177 58.2613 26.091 58.144C26.4643 58.016 26.859 57.952 27.275 57.952C27.4883 57.952 27.691 57.9733 27.883 58.016C28.0857 58.048 28.267 58.0907 28.427 58.144H31.243V59.504H29.803C29.931 59.6533 30.0377 59.8453 30.123 60.08C30.2083 60.304 30.251 60.5547 30.251 60.832C30.251 61.2693 30.171 61.6533 30.011 61.984C29.8617 62.3147 29.6537 62.592 29.387 62.816C29.1203 63.04 28.8057 63.2107 28.443 63.328C28.0803 63.4453 27.691 63.504 27.275 63.504C27.1043 63.504 26.9283 63.488 26.747 63.456C26.5657 63.424 26.3843 63.3707 26.203 63.296C26.0857 63.4027 25.9897 63.5093 25.915 63.616C25.851 63.7227 25.819 63.8667 25.819 64.048C25.819 64.272 25.9097 64.448 26.091 64.576C26.283 64.704 26.619 64.768 27.099 64.768H28.491C29.4403 64.768 30.155 64.9227 30.635 65.232C31.1257 65.5307 31.371 66.0213 31.371 66.704C31.371 67.088 31.2697 67.4507 31.067 67.792C30.875 68.1333 30.5977 68.4267 30.235 68.672C29.8723 68.9173 29.4297 69.1093 28.907 69.248C28.395 69.3973 27.819 69.472 27.179 69.472ZM27.275 62.352C27.6483 62.352 27.9683 62.2187 28.235 61.952C28.5017 61.6747 28.635 61.28 28.635 60.768C28.635 60.2773 28.5017 59.8987 28.235 59.632C27.979 59.3547 27.659 59.216 27.275 59.216C26.891 59.216 26.5657 59.3493 26.299 59.616C26.0323 59.8827 25.899 60.2667 25.899 60.768C25.899 61.28 26.0323 61.6747 26.299 61.952C26.5657 62.2187 26.891 62.352 27.275 62.352ZM27.467 68.272C28.107 68.272 28.619 68.144 29.003 67.888C29.3977 67.6427 29.595 67.3493 29.595 67.008C29.595 66.6987 29.4723 66.4907 29.227 66.384C28.9923 66.2773 28.651 66.224 28.203 66.224H27.131C26.7043 66.224 26.347 66.1867 26.059 66.112C25.6537 66.4213 25.451 66.768 25.451 67.152C25.451 67.504 25.627 67.776 25.979 67.968C26.3417 68.1707 26.8377 68.272 27.467 68.272ZM35.1782 66.192C34.4849 66.192 33.9249 65.984 33.4982 65.568C33.0716 65.1413 32.8582 64.5813 32.8582 63.888C32.8582 63.472 32.9436 63.104 33.1142 62.784C33.2956 62.4533 33.5729 62.1707 33.9462 61.936C34.3302 61.7013 34.8102 61.504 35.3862 61.344C35.9729 61.184 36.6716 61.0613 37.4822 60.976C37.4716 60.7733 37.4396 60.5813 37.3862 60.4C37.3436 60.208 37.2636 60.0427 37.1462 59.904C37.0396 59.7547 36.8956 59.6427 36.7142 59.568C36.5329 59.4827 36.3089 59.44 36.0422 59.44C35.6582 59.44 35.2796 59.5147 34.9062 59.664C34.5436 59.8133 34.1862 59.9947 33.8342 60.208L33.1622 58.976C33.5996 58.6987 34.0902 58.4587 34.6342 58.256C35.1782 58.0533 35.7649 57.952 36.3942 57.952C37.3756 57.952 38.1062 58.2453 38.5862 58.832C39.0769 59.408 39.3222 60.2453 39.3222 61.344V66H37.8022L37.6742 65.136H37.6102C37.2582 65.4347 36.8796 65.6853 36.4742 65.888C36.0796 66.0907 35.6476 66.192 35.1782 66.192ZM35.7702 64.752C36.0902 64.752 36.3782 64.6773 36.6342 64.528C36.9009 64.3787 37.1836 64.1653 37.4822 63.888V62.128C36.9489 62.192 36.5009 62.2773 36.1382 62.384C35.7756 62.4907 35.4822 62.6133 35.2582 62.752C35.0342 62.88 34.8742 63.0293 34.7782 63.2C34.6822 63.3707 34.6342 63.552 34.6342 63.744C34.6342 64.096 34.7409 64.352 34.9542 64.512C35.1676 64.672 35.4396 64.752 35.7702 64.752Z" fill="#E28F83"/>
<rect width="46" height="46" rx="18" fill="#E28F83"/>
<path d="M23.4761 34C17.1466 34 12 28.8534 12 22.5327C12 18.0306 14.6483 13.9256 18.7532 12.0718C19.0004 11.9571 19.2829 11.9835 19.5124 12.1248C19.742 12.266 19.8832 12.5132 19.8832 12.7869C20.0156 18.9045 25.1092 23.8922 31.2357 23.8922C32.1008 23.8922 32.966 23.7951 33.8134 23.5921C34.0694 23.5303 34.3519 23.6009 34.5461 23.7863C34.7403 23.9717 34.8286 24.2365 34.7845 24.5013C33.8311 30.0098 29.0817 34 23.4761 34ZM18.3737 14.0757C15.4428 15.8501 13.5978 19.0546 13.5978 22.5327C13.5978 27.9706 18.0294 32.4022 23.4761 32.4022C27.8988 32.4022 31.7124 29.5067 32.9395 25.3753C32.3745 25.4547 31.8007 25.49 31.2357 25.49C24.6679 25.49 19.1417 20.4759 18.3737 14.0757Z" fill="#FAF2DA"/>
</svg>
