<svg width="46" height="58" viewBox="0 0 46 58" fill="none" xmlns="http://www.w3.org/2000/svg">
<path d="M8.71575 54V50.112L5.57975 43.536H7.56375L8.69975 46.208C8.84908 46.6027 8.99842 46.9867 9.14775 47.36C9.29708 47.7227 9.45708 48.1067 9.62775 48.512H9.69175C9.86242 48.1067 10.0277 47.7227 10.1877 47.36C10.3477 46.9867 10.5024 46.6027 10.6517 46.208L11.7877 43.536H13.7237L10.5717 50.112V54H8.71575ZM18.0777 54.192C17.5871 54.192 17.1177 54.1013 16.6697 53.92C16.2217 53.7387 15.8217 53.472 15.4697 53.12C15.1284 52.768 14.8564 52.336 14.6537 51.824C14.4511 51.312 14.3497 50.7307 14.3497 50.08C14.3497 49.4293 14.4511 48.848 14.6537 48.336C14.8564 47.824 15.1284 47.392 15.4697 47.04C15.8217 46.688 16.2217 46.4213 16.6697 46.24C17.1177 46.048 17.5871 45.952 18.0777 45.952C18.5684 45.952 19.0377 46.048 19.4857 46.24C19.9444 46.4213 20.3444 46.688 20.6857 47.04C21.0271 47.392 21.2991 47.824 21.5017 48.336C21.7151 48.848 21.8217 49.4293 21.8217 50.08C21.8217 50.7307 21.7151 51.312 21.5017 51.824C21.2991 52.336 21.0271 52.768 20.6857 53.12C20.3444 53.472 19.9444 53.7387 19.4857 53.92C19.0377 54.1013 18.5684 54.192 18.0777 54.192ZM18.0777 52.688C18.6537 52.688 19.1071 52.4533 19.4377 51.984C19.7684 51.504 19.9337 50.8693 19.9337 50.08C19.9337 49.28 19.7684 48.6453 19.4377 48.176C19.1071 47.696 18.6537 47.456 18.0777 47.456C17.5017 47.456 17.0484 47.696 16.7177 48.176C16.3977 48.6453 16.2377 49.28 16.2377 50.08C16.2377 50.8693 16.3977 51.504 16.7177 51.984C17.0484 52.4533 17.5017 52.688 18.0777 52.688ZM27.179 57.472C26.7097 57.472 26.2723 57.4293 25.867 57.344C25.4723 57.2587 25.131 57.1307 24.843 56.96C24.555 56.7893 24.3257 56.576 24.155 56.32C23.995 56.064 23.915 55.7653 23.915 55.424C23.915 55.0933 24.011 54.784 24.203 54.496C24.395 54.2187 24.6723 53.968 25.035 53.744V53.68C24.8323 53.552 24.6617 53.3813 24.523 53.168C24.395 52.9547 24.331 52.688 24.331 52.368C24.331 52.0587 24.4163 51.7813 24.587 51.536C24.7683 51.28 24.971 51.072 25.195 50.912V50.848C24.9283 50.6453 24.6883 50.368 24.475 50.016C24.2723 49.6533 24.171 49.2373 24.171 48.768C24.171 48.32 24.2563 47.92 24.427 47.568C24.5977 47.216 24.8217 46.9227 25.099 46.688C25.387 46.4427 25.7177 46.2613 26.091 46.144C26.4643 46.016 26.859 45.952 27.275 45.952C27.4883 45.952 27.691 45.9733 27.883 46.016C28.0857 46.048 28.267 46.0907 28.427 46.144H31.243V47.504H29.803C29.931 47.6533 30.0377 47.8453 30.123 48.08C30.2083 48.304 30.251 48.5547 30.251 48.832C30.251 49.2693 30.171 49.6533 30.011 49.984C29.8617 50.3147 29.6537 50.592 29.387 50.816C29.1203 51.04 28.8057 51.2107 28.443 51.328C28.0803 51.4453 27.691 51.504 27.275 51.504C27.1043 51.504 26.9283 51.488 26.747 51.456C26.5657 51.424 26.3843 51.3707 26.203 51.296C26.0857 51.4027 25.9897 51.5093 25.915 51.616C25.851 51.7227 25.819 51.8667 25.819 52.048C25.819 52.272 25.9097 52.448 26.091 52.576C26.283 52.704 26.619 52.768 27.099 52.768H28.491C29.4403 52.768 30.155 52.9227 30.635 53.232C31.1257 53.5307 31.371 54.0213 31.371 54.704C31.371 55.088 31.2697 55.4507 31.067 55.792C30.875 56.1333 30.5977 56.4267 30.235 56.672C29.8723 56.9173 29.4297 57.1093 28.907 57.248C28.395 57.3973 27.819 57.472 27.179 57.472ZM27.275 50.352C27.6483 50.352 27.9683 50.2187 28.235 49.952C28.5017 49.6747 28.635 49.28 28.635 48.768C28.635 48.2773 28.5017 47.8987 28.235 47.632C27.979 47.3547 27.659 47.216 27.275 47.216C26.891 47.216 26.5657 47.3493 26.299 47.616C26.0323 47.8827 25.899 48.2667 25.899 48.768C25.899 49.28 26.0323 49.6747 26.299 49.952C26.5657 50.2187 26.891 50.352 27.275 50.352ZM27.467 56.272C28.107 56.272 28.619 56.144 29.003 55.888C29.3977 55.6427 29.595 55.3493 29.595 55.008C29.595 54.6987 29.4723 54.4907 29.227 54.384C28.9923 54.2773 28.651 54.224 28.203 54.224H27.131C26.7043 54.224 26.347 54.1867 26.059 54.112C25.6537 54.4213 25.451 54.768 25.451 55.152C25.451 55.504 25.627 55.776 25.979 55.968C26.3417 56.1707 26.8377 56.272 27.467 56.272ZM35.1782 54.192C34.4849 54.192 33.9249 53.984 33.4982 53.568C33.0716 53.1413 32.8582 52.5813 32.8582 51.888C32.8582 51.472 32.9436 51.104 33.1142 50.784C33.2956 50.4533 33.5729 50.1707 33.9462 49.936C34.3302 49.7013 34.8102 49.504 35.3862 49.344C35.9729 49.184 36.6716 49.0613 37.4822 48.976C37.4716 48.7733 37.4396 48.5813 37.3862 48.4C37.3436 48.208 37.2636 48.0427 37.1462 47.904C37.0396 47.7547 36.8956 47.6427 36.7142 47.568C36.5329 47.4827 36.3089 47.44 36.0422 47.44C35.6582 47.44 35.2796 47.5147 34.9062 47.664C34.5436 47.8133 34.1862 47.9947 33.8342 48.208L33.1622 46.976C33.5996 46.6987 34.0902 46.4587 34.6342 46.256C35.1782 46.0533 35.7649 45.952 36.3942 45.952C37.3756 45.952 38.1062 46.2453 38.5862 46.832C39.0769 47.408 39.3222 48.2453 39.3222 49.344V54H37.8022L37.6742 53.136H37.6102C37.2582 53.4347 36.8796 53.6853 36.4742 53.888C36.0796 54.0907 35.6476 54.192 35.1782 54.192ZM35.7702 52.752C36.0902 52.752 36.3782 52.6773 36.6342 52.528C36.9009 52.3787 37.1836 52.1653 37.4822 51.888V50.128C36.9489 50.192 36.5009 50.2773 36.1382 50.384C35.7756 50.4907 35.4822 50.6133 35.2582 50.752C35.0342 50.88 34.8742 51.0293 34.7782 51.2C34.6822 51.3707 34.6342 51.552 34.6342 51.744C34.6342 52.096 34.7409 52.352 34.9542 52.512C35.1676 52.672 35.4396 52.752 35.7702 52.752Z" fill="#A1A4B2"/>
<path d="M23.4761 22C17.1466 22 12 16.8534 12 10.5327C12 6.03056 14.6483 1.92565 18.7532 0.071818C19.0004 -0.042943 19.2829 -0.0164596 19.5124 0.124785C19.742 0.266029 19.8832 0.513207 19.8832 0.786867C20.0156 6.90451 25.1092 11.8922 31.2357 11.8922C32.1008 11.8922 32.966 11.7951 33.8134 11.5921C34.0694 11.5303 34.3519 11.6009 34.5461 11.7863C34.7403 11.9717 34.8286 12.2365 34.7845 12.5013C33.8311 18.0098 29.0817 22 23.4761 22ZM18.3737 2.07572C15.4428 3.8501 13.5978 7.05458 13.5978 10.5327C13.5978 15.9706 18.0294 20.4022 23.4761 20.4022C27.8988 20.4022 31.7124 17.5067 32.9395 13.3753C32.3745 13.4547 31.8007 13.49 31.2357 13.49C24.6679 13.49 19.1417 8.47585 18.3737 2.07572Z" fill="#A0A3B1"/>
</svg>
