<svg width="414" height="351" viewBox="0 0 414 351" fill="none" xmlns="http://www.w3.org/2000/svg">
<path d="M-59.3232 208.085C-5.19803 237.628 62.8566 224.305 101.87 176.527C106.187 171.24 113.823 170.12 119.485 173.931L142.59 189.474C148.997 193.786 150.344 202.632 145.552 208.694C133.334 224.146 118.834 237.397 102.303 248.191C82.4978 261.124 60.6453 269.995 37.3454 274.557C14.0456 279.119 -9.53763 279.143 -32.7482 274.632C-52.1253 270.864 -70.544 264.064 -87.6789 254.357C-94.3976 250.549 -96.4817 241.846 -92.171 235.435L-76.6215 212.323C-72.8087 206.658 -65.3104 204.814 -59.3232 208.085Z" fill="#FAF2DA" fill-opacity="0.4"/>
<path d="M109.01 103.001C94.0399 43.1805 38.1095 2.18273 -23.4629 5.8879C-30.2775 6.29736 -36.2769 1.44009 -37.313 -5.30389L-41.5495 -32.8257C-42.7261 -40.4609 -37.1323 -47.4457 -29.4262 -48.0318C-9.78549 -49.5251 9.78693 -47.8431 28.9297 -43.01C51.8632 -37.2174 73.1985 -27.1616 92.3453 -13.1277C111.492 0.906193 127.499 18.2278 139.919 38.3513C150.287 55.1511 157.769 73.3036 162.25 92.4798C164.009 100.003 159.022 107.433 151.384 108.609L123.848 112.844C117.102 113.884 110.665 109.621 109.01 103.001Z" fill="#FAF2DA" fill-opacity="0.4"/>
<path d="M277.286 58.8936C338.296 49.7932 384.537 -1.88251 386.81 -63.5016C387.063 -70.3218 392.48 -75.8174 399.294 -76.1987L427.107 -77.7482C434.821 -78.1778 441.238 -71.9356 441.073 -64.2161C440.656 -44.5301 437.09 -25.2215 430.42 -6.64345C422.433 15.6117 410.353 35.8677 394.524 53.5586C378.694 71.2495 359.896 85.4962 338.658 95.9052C320.928 104.592 302.127 110.28 282.603 112.882C274.945 113.901 268.026 108.221 267.596 100.51L266.046 72.7067C265.673 65.8945 270.536 59.9012 277.286 58.8936Z" fill="#FAF2DA" fill-opacity="0.4"/>
<path d="M317.164 179.206C348.606 232.251 413.917 255.56 471.862 234.412C478.274 232.072 485.411 235.009 488.332 241.178L500.256 266.343C503.561 273.322 500.201 281.615 492.985 284.379C474.589 291.422 455.354 295.407 435.628 296.243C411.996 297.245 388.678 293.709 366.317 285.73C343.956 277.751 323.669 265.725 306.019 249.991C291.285 236.854 278.924 221.6 269.152 204.502C265.32 197.797 267.974 189.25 274.955 185.94L300.129 174.013C306.3 171.091 313.688 173.336 317.164 179.206Z" fill="#FAF2DA" fill-opacity="0.4"/>
</svg>
